# 3ds Max Wavefront OBJ Exporter v0.97b - (c)2007 guruware
# File Created: 12.06.2014 21:49:54

mtllib WangGuoJun_City.mtl

#
# object default
#

v  0.0000 52.8313 -0.0000
v  21.0410 52.8313 54.1055
v  24.0469 52.8313 54.1055
v  0.0000 52.8313 93.1816
v  93.1816 52.8313 93.1816
v  24.0469 52.8313 63.1231
v  21.0410 52.8313 63.1231
v  24.0469 52.8313 60.1172
v  18.0352 52.8313 60.1172
v  18.0352 52.8313 63.1231
v  21.0410 53.5250 60.1172
v  21.0410 53.9278 57.1113
v  93.1816 52.8313 -0.0000
v  24.0469 52.8313 57.1113
v  18.0352 52.8313 57.1113
# 15 vertices

vn 0.0000 1.0000 -0.0000
vn -0.0441 0.9904 -0.1307
vn 0.0447 0.9980 -0.0447
vn 0.0284 0.9960 0.0849
vn 0.0849 0.9960 0.0284
vn -0.1289 0.9915 0.0158
vn -0.0286 0.9992 0.0286
vn 0.0428 0.9900 0.1345
vn -0.0225 0.9967 -0.0781
vn 0.1585 0.9872 0.0157
vn -0.1307 0.9904 -0.0441
# 11 vertex normals

vt 0.0000 0.0000 0.0000
vt 0.5806 0.2258 0.0000
vt 0.5806 0.2581 0.0000
vt 1.0000 -0.0000 0.0000
vt 1.0000 1.0000 0.0000
vt 0.6774 0.2581 0.0000
vt 0.6774 0.2258 0.0000
vt 0.6452 0.2581 0.0000
vt 0.6452 0.1935 0.0000
vt 0.6774 0.1935 0.0000
vt 0.6452 0.2258 0.0000
vt 0.6129 0.2258 0.0000
vt 0.0000 1.0000 0.0000
vt 0.6129 0.2581 0.0000
vt 0.6129 0.1935 0.0000
# 15 texture coords

g default
usemtl _WangGuoJun_Citydefault
s 1
f 1/1/1 2/2/2 3/3/3 
f 4/4/1 5/5/1 6/6/1 
f 7/7/4 6/6/1 8/8/5 
f 9/9/6 10/10/7 11/11/8 
f 2/2/2 12/12/9 3/3/3 
f 1/1/1 3/3/3 13/13/1 
f 3/3/3 14/14/10 13/13/1 
f 12/12/9 11/11/8 14/14/10 
f 9/9/6 11/11/8 12/12/9 
f 15/15/11 12/12/9 2/2/2 
f 5/5/1 13/13/1 14/14/10 8/8/5 
f 11/11/8 8/8/5 14/14/10 
f 11/11/8 7/7/4 8/8/5 
f 4/4/1 10/10/7 9/9/6 
f 12/12/9 14/14/10 3/3/3 
f 7/7/4 4/4/1 6/6/1 
f 10/10/7 7/7/4 11/11/8 
f 10/10/7 4/4/1 7/7/4 
f 15/15/11 9/9/6 12/12/9 
f 4/4/1 9/9/6 15/15/11 
f 4/4/1 15/15/11 1/1/1 
f 1/1/1 15/15/11 2/2/2 
f 8/8/5 6/6/1 5/5/1 
# 1 polygons - 22 triangles

