# 3ds Max Wavefront OBJ Exporter v0.97b - (c)2007 guruware
# File Created: 10.07.2014 11:49:30

mtllib YiZhan_08_m.mtl

#
# object Object001
#

v  30.7800 152.8292 50.0175
v  30.7800 152.9573 60.5981
v  47.1319 153.3968 45.2081
v  14.4281 152.4446 53.8650
v  18.2756 152.7742 59.6362
v  6.7331 152.3347 48.0938
v  21.1612 152.5545 42.3225
v  11.5425 152.2798 40.3988
v  27.8944 152.9207 44.2463
v  45.2081 152.9207 33.6656
v  44.2463 152.9573 62.5219
v  28.8563 152.9207 34.6275
v  10.5806 152.5179 36.5513
v  17.3137 152.2798 35.5894
v  40.3988 152.9207 28.8563
v  36.5513 152.9207 28.8563
v  6.7331 152.5179 56.7506
# 17 vertices

vn -0.0310 0.9995 0.0030
vn -0.0171 0.9999 -0.0018
vn -0.0214 0.9997 -0.0109
vn -0.0153 0.9996 -0.0253
vn -0.0219 0.9992 -0.0337
vn -0.0037 1.0000 -0.0081
vn -0.0374 0.9993 -0.0063
vn 0.0262 0.9996 0.0140
vn -0.0435 0.9989 0.0186
vn -0.0108 0.9998 -0.0176
vn -0.0035 0.9997 0.0248
vn -0.0204 0.9998 -0.0026
vn 0.0526 0.9974 0.0486
vn -0.0234 0.9997 -0.0065
vn 0.0000 1.0000 -0.0000
vn -0.0021 0.9995 -0.0310
# 16 vertex normals

vt 0.5254 0.3284 24.1428
vt 0.6369 0.2686 24.1654
vt 0.5142 0.5001 24.2221
vt 0.5670 0.1570 24.0833
vt 0.6176 0.1371 24.0946
vt 0.4866 0.0958 24.0720
vt 0.4759 0.1766 24.0606
vt 0.4258 0.1257 24.0578
vt 0.4650 0.2977 24.1569
vt 0.3527 0.4788 24.1569
vt 0.6459 0.4403 24.1569
vt 0.3334 0.3474 24.1598
vt 0.3953 0.1559 24.0663
vt 0.3846 0.2366 24.3184
vt 0.3225 0.4685 24.1569
vt 0.3028 0.3876 24.1569
vt 0.5571 0.1165 24.0946
# 17 texture coords

g Object001
usemtl 02___Default
s 1
f 1/1/1 2/2/2 3/3/3 
f 1/1/1 4/4/4 5/5/5 
f 6/6/6 7/7/7 8/8/8 
f 9/9/9 3/3/3 10/10/10 
f 7/7/7 4/4/4 1/1/1 
f 1/1/1 5/5/5 2/2/2 
f 3/3/3 2/2/2 11/11/11 
f 7/7/7 9/9/9 12/12/12 
f 13/13/13 6/6/6 8/8/8 
f 7/7/7 14/14/14 8/8/8 
f 9/9/9 10/10/10 15/15/15 
f 7/7/7 6/6/6 4/4/4 
f 9/9/9 15/15/15 16/16/15 
f 13/13/13 8/8/8 14/14/14 
f 6/6/6 17/17/16 4/4/4 
f 17/17/16 5/5/5 4/4/4 
f 7/7/7 12/12/12 14/14/14 
f 16/16/15 12/12/12 9/9/9 
f 9/9/9 1/1/1 3/3/3 
f 9/9/9 7/7/7 1/1/1 
# 0 polygons - 20 triangles

