# 3ds Max Wavefront OBJ Exporter v0.97b - (c)2007 guruware
# File Created: 10.11.2014 13:40:20

mtllib WGJ_ZhuCheng_01.mtl

#
# object WGJ_ZhuCheng_01
#

v  70.6275 154.4131 23.8504
v  62.8598 154.4131 36.0680
v  71.3887 154.4131 37.0357
v  80.7030 154.4131 24.7664
v  84.1725 154.4131 16.4475
v  55.1475 154.4131 39.6675
v  57.0825 154.4131 18.2915
v  46.4267 172.0000 65.0649
v  52.2020 172.0000 60.9518
v  46.4174 172.0000 61.9087
v  95.7825 154.4131 39.5781
v  95.7825 154.4131 28.0575
v  88.8032 154.4131 39.5859
v  29.2341 171.1957 79.3350
v  37.6600 171.1957 79.9900
v  37.2141 171.1957 70.1677
v  44.7281 171.1957 80.2887
v  28.6736 167.9363 70.6275
v  29.2341 171.1957 73.5300
v  29.2244 171.1957 70.2789
v  51.2775 172.0000 54.1800
v  52.1731 172.0000 51.2775
v  52.2450 172.0000 42.3664
v  39.4184 168.9228 33.9598
v  33.4031 168.9228 41.9485
v  38.6058 168.9228 41.5574
v  27.8125 168.9228 27.0385
v  33.6952 168.9228 26.9584
v  27.9271 168.9228 19.5654
v  3.7074 162.1575 37.7756
v  3.7192 162.1575 43.5375
v  7.8998 162.1575 41.8782
v  8.0521 162.1575 37.5298
v  39.2306 172.0000 46.4400
v  46.4400 172.0000 37.7325
v  39.2306 172.0000 37.7325
v  12.7465 167.9363 89.9775
v  28.8906 167.9363 89.9333
v  28.8791 167.9363 80.3025
v  7.7400 162.1575 45.9629
v  41.1826 154.4131 -0.0000
v  41.2969 154.4131 8.7075
v  59.9850 154.4131 -0.0000
v  12.7465 167.9363 62.8428
v  28.3185 167.9363 62.8136
v  29.1797 172.0000 69.6371
v  46.4400 172.0000 69.5555
v  44.5050 171.1957 70.0632
v  76.4325 154.4131 10.6425
v  33.8341 168.9228 19.6039
v  24.3181 168.9228 10.2927
v  52.0166 172.0000 69.5357
v  29.2341 171.1957 89.9333
v  41.6025 154.4131 20.3175
v  10.7795 165.4184 10.6425
v  5.6644 165.4184 19.0931
v  20.3122 165.4184 10.6425
v  41.6025 154.4131 35.7975
v  46.3712 172.0000 44.8930
v  38.1816 171.1957 90.5025
v  50.3100 171.1957 80.6425
v  50.3100 171.1957 70.3654
v  27.4398 168.9228 51.1287
v  33.2448 168.9228 51.1287
v  27.6702 168.9228 34.7854
v  33.5342 168.9228 34.4656
v  27.5717 168.9228 42.4631
v  28.4668 172.0000 65.7900
v  46.3886 172.0000 52.1430
v  16.4475 165.4184 19.0931
v  14.5125 175.1557 60.9525
v  24.1875 175.1557 60.8825
v  24.1875 175.1557 51.3442
v  20.3175 165.4184 19.0931
v  21.0314 168.9228 51.1287
v  21.0314 168.9228 42.3323
v  25.1550 172.0000 60.9736
v  27.0900 172.0000 51.2782
v  25.1550 172.0000 52.2450
v  38.4626 168.9228 50.7158
v  3.6777 162.1575 45.9629
v  34.2224 168.9228 10.2927
v  39.6675 168.9228 19.4423
v  39.6663 168.9228 10.2927
v  28.0575 172.0000 60.9525
v  5.8050 165.4184 10.6425
v  15.0868 162.1575 45.9045
v  20.3175 162.1575 45.8630
v  15.0977 162.1575 40.7802
v  52.6543 172.0000 59.0922
v  29.9925 171.1957 90.5912
v  94.8150 105.7316 95.7825
v  95.7825 105.7316 95.7825
v  95.7825 105.7316 94.8150
v  0.0000 138.5461 95.7825
v  0.9675 138.5461 95.7825
v  0.0000 138.5461 94.8150
v  94.8150 137.6488 -0.0000
v  95.7825 137.6488 0.9675
v  95.7825 138.0883 -0.0000
v  14.5125 175.1557 51.2775
v  31.9275 172.0000 69.6600
v  21.0313 168.9228 10.2927
v  21.0314 168.9228 19.5366
v  21.0314 168.9228 27.5351
v  21.0314 168.9228 35.0653
v  39.6675 168.9228 26.8777
v  8.6550 162.1575 19.2003
v  3.7018 162.1575 25.8251
v  8.4678 162.1575 25.6605
v  3.7024 162.1575 31.8520
v  8.2586 162.1575 31.6339
v  20.3175 162.1575 36.7650
v  20.3175 162.1575 30.9600
v  15.1049 162.1575 37.0900
v  15.1163 162.1575 31.2507
v  20.3175 162.1575 25.1550
v  15.1277 162.1575 25.3764
v  20.3175 162.1575 19.2003
v  15.1375 162.1575 19.2003
v  3.7302 162.1575 19.2003
v  54.6897 154.4131 50.5269
v  62.7773 154.4131 50.1766
v  71.9498 154.4131 50.3396
v  80.6058 154.4131 37.0128
v  80.8286 154.4131 50.2967
v  95.7825 154.4131 50.2136
v  88.9675 154.4131 50.2653
v  71.4708 154.4131 62.8412
v  81.0909 154.4131 62.8875
v  89.5793 154.4131 62.8204
v  95.7825 154.4131 62.7277
v  44.7495 171.1957 90.5025
v  50.3100 171.1957 90.5025
v  62.7170 172.0000 58.3652
v  62.6835 172.0000 60.5989
v  68.6071 172.0000 58.2049
v  37.7325 172.0000 51.2775
v  38.8106 172.0000 58.1053
v  39.9521 172.0000 65.3347
v  40.6350 172.0000 69.6600
v  39.2306 172.0000 51.2195
v  68.7337 172.0000 54.4128
v  66.7446 172.0000 50.5584
v  62.7488 172.0000 54.1959
v  62.7773 172.0000 50.4616
v  53.6234 172.0000 54.7759
v  65.9521 172.0000 60.3527
v  31.6343 168.9228 6.3524
v  34.3073 168.9228 6.3888
v  31.6096 168.9228 1.0078
v  27.8430 168.9228 0.8893
v  24.6234 168.9228 3.3608
v  27.4836 168.9228 5.9573
v  24.3753 168.9228 5.6035
v  34.3469 168.9228 3.9046
# 156 vertices

vn 0.0000 1.0000 -0.0000
vn -0.5981 0.8014 -0.0000
vn 0.0039 0.9404 0.3399
vn -0.5736 0.8179 0.0448
vn -0.5956 0.8032 0.0116
vn -0.5510 0.8242 0.1308
vn -0.4692 0.8818 -0.0471
vn -0.5984 0.8012 -0.0065
vn -0.6420 0.7593 0.1061
vn -0.6232 0.7749 0.1056
vn 0.0026 0.9397 0.3421
vn 0.0040 0.9373 0.3486
vn -0.0111 0.9658 0.2589
vn -0.3378 0.9409 -0.0260
vn 0.0000 0.7664 0.6424
vn -0.0139 0.9637 0.2668
vn -0.3646 0.9281 0.0749
vn 0.0000 0.8014 0.5981
vn 0.0000 0.8013 0.5983
vn -0.3822 0.8413 0.3822
vn 0.0228 0.9792 0.2014
vn 0.0000 0.8417 0.5399
vn -0.9707 0.2150 0.1076
vn 0.0046 0.9360 0.3520
# 24 vertex normals

vt 0.2490 0.7374 0.0000
vt 0.3766 0.6563 0.0000
vt 0.3867 0.7453 0.0000
vt 0.2586 0.8426 0.0000
vt 0.1717 0.8788 0.0000
vt 0.4141 0.5758 0.0000
vt 0.1910 0.5960 0.0000
vt 0.6793 0.4847 0.0000
vt 0.6364 0.5450 0.0000
vt 0.6463 0.4846 0.0000
vt 0.4132 1.0000 0.0000
vt 0.2929 1.0000 0.0000
vt 0.4133 0.9271 0.0000
vt 0.8283 0.3052 0.0000
vt 0.8351 0.3932 0.0000
vt 0.7326 0.3885 0.0000
vt 0.8382 0.4670 0.0000
vt 0.7374 0.2994 0.0000
vt 0.7677 0.3052 0.0000
vt 0.7337 0.3051 0.0000
vt 0.5657 0.5354 0.0000
vt 0.5354 0.5447 0.0000
vt 0.4423 0.5455 0.0000
vt 0.3546 0.4115 0.0000
vt 0.4380 0.3487 0.0000
vt 0.4339 0.4031 0.0000
vt 0.2823 0.2904 0.0000
vt 0.2815 0.3518 0.0000
vt 0.2043 0.2916 0.0000
vt 0.3944 0.0387 0.0000
vt 0.4545 0.0388 0.0000
vt 0.4372 0.0825 0.0000
vt 0.3918 0.0841 0.0000
vt 0.4848 0.4096 0.0000
vt 0.3939 0.4848 0.0000
vt 0.3939 0.4096 0.0000
vt 0.9394 0.1331 0.0000
vt 0.9389 0.3016 0.0000
vt 0.8384 0.3015 0.0000
vt 0.4799 0.0808 0.0000
vt 0.0000 0.4300 0.0000
vt 0.0909 0.4312 0.0000
vt 0.0000 0.6263 0.0000
vt 0.6561 0.1331 0.0000
vt 0.6558 0.2957 0.0000
vt 0.7270 0.3046 0.0000
vt 0.7262 0.4848 0.0000
vt 0.7315 0.4646 0.0000
vt 0.1111 0.7980 0.0000
vt 0.2047 0.3532 0.0000
vt 0.1075 0.2539 0.0000
vt 0.7260 0.5431 0.0000
vt 0.9389 0.3052 0.0000
vt 0.2121 0.4343 0.0000
vt 0.1111 0.1125 0.0000
vt 0.1993 0.0591 0.0000
vt 0.1111 0.2121 0.0000
vt 0.3737 0.4343 0.0000
vt 0.4687 0.4841 0.0000
vt 0.9449 0.3986 0.0000
vt 0.8419 0.5253 0.0000
vt 0.7346 0.5253 0.0000
vt 0.5338 0.2865 0.0000
vt 0.5338 0.3471 0.0000
vt 0.3632 0.2889 0.0000
vt 0.3598 0.3501 0.0000
vt 0.4433 0.2879 0.0000
vt 0.6869 0.2972 0.0000
vt 0.5444 0.4843 0.0000
vt 0.1993 0.1717 0.0000
vt 0.6364 0.1515 0.0000
vt 0.6356 0.2525 0.0000
vt 0.5360 0.2525 0.0000
vt 0.1993 0.2121 0.0000
vt 0.5338 0.2196 0.0000
vt 0.4420 0.2196 0.0000
vt 0.6366 0.2626 0.0000
vt 0.5354 0.2828 0.0000
vt 0.5455 0.2626 0.0000
vt 0.5295 0.4016 0.0000
vt 0.4799 0.0384 0.0000
vt 0.1075 0.3573 0.0000
vt 0.2030 0.4141 0.0000
vt 0.1075 0.4141 0.0000
vt 0.6364 0.2929 0.0000
vt 0.1111 0.0606 0.0000
vt 0.4793 0.1575 0.0000
vt 0.4788 0.2121 0.0000
vt 0.4258 0.1576 0.0000
vt 0.6169 0.5497 0.0000
vt 0.9458 0.3131 0.0000
vt 1.0000 0.9899 0.0000
vt 1.0000 1.0000 0.0000
vt 0.9899 1.0000 0.0000
vt 1.0000 -0.0000 0.0000
vt 1.0000 0.0101 0.0000
vt 0.9899 -0.0000 0.0000
vt 0.0000 0.9899 0.0000
vt 0.0101 1.0000 0.0000
vt 0.0000 1.0000 0.0000
vt 0.5354 0.1515 0.0000
vt 0.7273 0.3333 0.0000
vt 0.1075 0.2196 0.0000
vt 0.2040 0.2196 0.0000
vt 0.2875 0.2196 0.0000
vt 0.3661 0.2196 0.0000
vt 0.2806 0.4141 0.0000
vt 0.2005 0.0904 0.0000
vt 0.2696 0.0386 0.0000
vt 0.2679 0.0884 0.0000
vt 0.3325 0.0387 0.0000
vt 0.3303 0.0862 0.0000
vt 0.3838 0.2121 0.0000
vt 0.3232 0.2121 0.0000
vt 0.3872 0.1577 0.0000
vt 0.3263 0.1578 0.0000
vt 0.2626 0.2121 0.0000
vt 0.2649 0.1579 0.0000
vt 0.2005 0.2121 0.0000
vt 0.2005 0.1580 0.0000
vt 0.2005 0.0389 0.0000
vt 0.5275 0.5710 0.0000
vt 0.5266 0.6554 0.0000
vt 0.5256 0.7512 0.0000
vt 0.3864 0.8416 0.0000
vt 0.5251 0.8439 0.0000
vt 0.5248 0.9288 0.0000
vt 0.5242 1.0000 0.0000
vt 0.6561 0.7462 0.0000
vt 0.6566 0.8466 0.0000
vt 0.6559 0.9352 0.0000
vt 0.6549 1.0000 0.0000
vt 0.9449 0.4672 0.0000
vt 0.9449 0.5253 0.0000
vt 0.6094 0.6548 0.0000
vt 0.6327 0.6544 0.0000
vt 0.6077 0.7163 0.0000
vt 0.5354 0.3939 0.0000
vt 0.6066 0.4052 0.0000
vt 0.6821 0.4171 0.0000
vt 0.7273 0.4242 0.0000
vt 0.5347 0.4096 0.0000
vt 0.5681 0.7176 0.0000
vt 0.5258 0.6968 0.0000
vt 0.5658 0.6551 0.0000
vt 0.5268 0.6554 0.0000
vt 0.5719 0.5598 0.0000
vt 0.6301 0.6886 0.0000
vt 0.0663 0.3303 0.0000
vt 0.0667 0.3582 0.0000
vt 0.0105 0.3300 0.0000
vt 0.0093 0.2907 0.0000
vt 0.0351 0.2571 0.0000
vt 0.0622 0.2869 0.0000
vt 0.0585 0.2545 0.0000
vt 0.0408 0.3586 0.0000
# 156 texture coords

g WGJ_ZhuCheng_01
usemtl default
s 1
f 1/1/1 2/2/1 3/3/1 
f 4/4/1 5/5/1 1/1/1 
f 6/6/1 1/1/1 7/7/1 
f 8/8/1 9/9/1 10/10/1 
f 11/11/1 12/12/1 13/13/1 
f 14/14/2 15/15/1 16/16/3 
f 16/16/3 15/15/1 17/17/1 
f 18/18/4 19/19/5 20/20/6 
f 21/21/1 22/22/1 23/23/1 
f 24/24/1 25/25/1 26/26/1 
f 27/27/1 28/28/1 29/29/1 
f 30/30/1 31/31/1 32/32/1 33/33/1 
f 34/34/1 35/35/1 36/36/1 
f 37/37/1 38/38/7 39/39/8 
f 40/40/1 32/32/1 31/31/1 
f 41/41/1 42/42/1 43/43/1 
f 44/44/1 37/37/1 18/18/4 
f 45/45/9 18/18/4 46/46/10 
f 9/9/1 8/8/1 47/47/11 
f 20/20/6 19/19/5 16/16/3 
f 5/5/1 4/4/1 12/12/1 
f 48/48/12 16/16/3 17/17/1 
f 7/7/1 1/1/1 49/49/1 
f 29/29/1 50/50/1 51/51/1 
f 9/9/1 47/47/11 52/52/13 
f 39/39/8 38/38/7 53/53/14 
f 42/42/1 54/54/1 43/43/1 
f 55/55/1 56/56/15 57/57/1 
f 54/54/1 7/7/1 43/43/1 
f 18/18/4 39/39/8 19/19/5 
f 37/37/1 39/39/8 18/18/4 
f 58/58/1 7/7/1 54/54/1 
f 45/45/9 44/44/1 18/18/4 
f 59/59/1 23/23/1 35/35/1 
f 39/39/8 53/53/14 14/14/2 
f 14/14/2 53/53/14 60/60/1 
f 17/17/1 61/61/1 62/62/16 48/48/12 
f 63/63/1 64/64/1 25/25/1 
f 65/65/1 66/66/1 27/27/1 
f 63/63/1 25/25/1 67/67/1 
f 67/67/1 25/25/1 65/65/1 
f 45/45/9 46/46/10 68/68/17 
f 6/6/1 7/7/1 58/58/1 
f 21/21/1 23/23/1 59/59/1 69/69/1 
f 70/70/18 57/57/1 56/56/15 
f 71/71/1 72/72/1 73/73/1 
f 57/57/1 70/70/18 74/74/19 
f 6/6/1 2/2/1 1/1/1 
f 49/49/1 1/1/1 5/5/1 
f 75/75/1 63/63/1 76/76/1 
f 77/77/1 78/78/1 79/79/1 
f 64/64/1 80/80/1 26/26/1 
f 81/81/1 40/40/1 31/31/1 
f 82/82/1 83/83/1 84/84/1 
f 77/77/1 85/85/1 78/78/1 
f 56/56/15 55/55/1 86/86/1 
f 19/19/5 14/14/2 16/16/3 
f 39/39/8 14/14/2 19/19/5 
f 87/87/1 88/88/1 89/89/1 
f 9/9/1 90/90/1 10/10/1 
f 7/7/1 49/49/1 43/43/1 
f 91/91/1 60/60/1 53/53/14 
f 92/92/1 93/93/1 94/94/1 
f 95/95/1 96/96/1 97/97/1 
f 98/98/20 99/99/20 100/100/20 
f 101/101/1 71/71/1 73/73/1 
f 68/68/17 46/46/10 102/102/21 
f 51/51/1 103/103/1 29/29/1 
f 29/29/1 104/104/1 27/27/1 
f 27/27/1 105/105/1 65/65/1 
f 65/65/1 106/106/1 67/67/1 
f 67/67/1 76/76/1 63/63/1 
f 25/25/1 24/24/1 66/66/1 
f 66/66/1 24/24/1 28/28/1 
f 28/28/1 107/107/1 50/50/1 
f 50/50/1 83/83/1 82/82/1 
f 25/25/1 64/64/1 26/26/1 
f 106/106/1 76/76/1 67/67/1 
f 105/105/1 106/106/1 65/65/1 
f 104/104/1 105/105/1 27/27/1 
f 103/103/1 104/104/1 29/29/1 
f 107/107/1 83/83/1 50/50/1 
f 50/50/1 82/82/1 51/51/1 
f 28/28/1 50/50/1 29/29/1 
f 66/66/1 28/28/1 27/27/1 
f 24/24/1 107/107/1 28/28/1 
f 25/25/1 66/66/1 65/65/1 
f 108/108/18 109/109/1 110/110/1 
f 110/110/1 111/111/1 112/112/1 
f 113/113/1 114/114/1 115/115/1 
f 112/112/1 30/30/1 33/33/1 
f 89/89/1 113/113/1 115/115/1 
f 32/32/1 115/115/1 33/33/1 
f 115/115/1 114/114/1 116/116/1 
f 116/116/1 117/117/1 118/118/1 
f 118/118/1 119/119/18 120/120/18 
f 120/120/18 110/110/1 118/118/1 
f 118/118/1 112/112/1 116/116/1 
f 116/116/1 33/33/1 115/115/1 
f 115/115/1 32/32/1 89/89/1 
f 89/89/1 40/40/1 87/87/1 
f 32/32/1 40/40/1 89/89/1 
f 88/88/1 113/113/1 89/89/1 
f 116/116/1 112/112/1 33/33/1 
f 112/112/1 111/111/1 30/30/1 
f 110/110/1 109/109/1 111/111/1 
f 118/118/1 110/110/1 112/112/1 
f 116/116/1 114/114/1 117/117/1 
f 108/108/18 121/121/22 109/109/1 
f 120/120/18 108/108/18 110/110/1 
f 118/118/1 117/117/1 119/119/18 
f 6/6/1 122/122/1 2/2/1 
f 2/2/1 123/123/1 3/3/1 
f 3/3/1 124/124/1 125/125/1 
f 125/125/1 126/126/1 13/13/1 
f 127/128/1 11/11/1 13/13/1 128/127/1 
f 129/129/1 130/130/1 124/124/1 
f 124/124/1 130/130/1 126/126/1 
f 126/126/1 130/130/1 128/127/1 
f 131/131/1 132/132/1 127/128/1 128/127/1 
f 2/2/1 122/122/1 123/123/1 
f 128/127/1 130/130/1 131/131/1 
f 123/123/1 124/124/1 3/3/1 
f 124/124/1 126/126/1 125/125/1 
f 126/126/1 128/127/1 13/13/1 
f 3/3/1 125/125/1 4/4/1 1/1/1 
f 4/4/1 13/13/1 12/12/1 
f 4/4/1 125/125/1 13/13/1 
s off
f 18/18/23 20/20/23 46/46/23 
s 1
f 14/14/2 60/60/1 15/15/1 
f 133/133/1 134/134/1 17/17/1 
f 17/17/1 134/134/1 61/61/1 
f 17/17/1 15/15/1 60/60/1 133/133/1 
f 90/90/1 9/9/1 135/135/1 
f 135/135/1 136/136/1 137/137/1 
f 138/138/1 78/78/1 139/139/1 
f 85/85/1 68/68/17 140/140/1 139/139/1 
f 140/140/1 68/68/17 102/102/21 141/141/24 
f 139/139/1 78/78/1 85/85/1 
f 35/35/1 34/34/1 59/59/1 
f 34/34/1 142/142/1 69/69/1 59/59/1 
f 69/69/1 142/142/1 10/10/1 
f 10/10/1 142/142/1 138/138/1 
f 10/10/1 138/138/1 139/139/1 
f 140/140/1 8/8/1 10/10/1 139/139/1 
f 8/8/1 140/140/1 141/141/24 
f 8/8/1 141/141/24 47/47/11 
f 143/143/1 144/144/1 145/145/1 
f 145/145/1 144/144/1 146/146/1 
f 145/145/1 146/146/1 147/147/1 
f 147/147/1 146/146/1 22/22/1 
f 137/137/1 143/143/1 135/135/1 
f 135/135/1 145/145/1 90/90/1 
f 145/145/1 147/147/1 90/90/1 
f 9/9/1 136/136/1 135/135/1 
f 136/136/1 148/148/1 137/137/1 
f 143/143/1 145/145/1 135/135/1 
f 147/147/1 22/22/1 21/21/1 
f 21/21/1 69/69/1 10/10/1 90/90/1 
f 90/90/1 147/147/1 21/21/1 
f 149/149/1 150/150/1 151/151/1 
f 152/152/1 153/153/1 154/154/1 
f 154/154/1 153/153/1 155/155/1 
f 154/154/1 155/155/1 51/51/1 
f 151/151/1 152/152/1 149/149/1 
f 149/149/1 154/154/1 82/82/1 
f 154/154/1 51/51/1 82/82/1 
f 82/82/1 150/150/1 149/149/1 
f 150/150/1 156/156/1 151/151/1 
f 152/152/1 154/154/1 149/149/1 
# 12 polygons - 158 triangles

