# 3ds Max Wavefront OBJ Exporter v0.97b - (c)2007 guruware
# File Created: 23.07.2014 15:08:35

mtllib WangGuoJun_yingdi01_m.mtl

#
# object WangGuoJun_yingdi01
#

v  -1.3162 159.9872 56.8110
v  36.7650 159.9872 40.6350
v  0.0000 159.9872 -0.0000
v  44.2119 164.6219 38.9452
v  52.1361 164.6219 42.9263
v  54.9923 164.6219 20.1848
v  33.6321 162.0216 50.3480
v  40.6858 162.0216 53.2078
v  42.0599 162.0216 42.7700
v  88.9523 164.6219 37.0723
v  44.0795 167.6250 94.6314
v  72.5218 168.2322 95.7825
v  62.3375 167.6250 64.1423
v  45.5109 162.0216 55.6056
v  50.3983 162.0216 46.6542
v  41.5332 159.9872 42.5127
v  67.7777 159.9872 -0.0000
v  35.4342 167.6250 69.9874
v  42.4978 167.6250 54.0354
v  32.3518 159.9872 49.6850
v  38.8615 162.0033 41.4114
v  45.4970 164.6219 55.6512
v  62.3616 164.6219 64.1403
v  71.1194 164.6219 68.3870
v  87.8973 160.0073 93.5203
v  95.7825 160.0073 95.7825
v  92.0909 160.0073 89.1155
v  91.9547 160.0073 2.9091
v  92.9222 160.0073 3.8766
v  95.7825 160.0073 -0.0000
v  2.9966 160.0073 90.5959
v  0.0000 160.0073 95.7825
v  3.9641 160.0073 91.5635
# 33 vertices

vn 0.0000 1.0000 -0.0000
vn -0.1666 0.9827 -0.0813
vn -0.1194 0.9608 0.2502
vn -0.0624 0.9903 0.1242
vn -0.0737 0.9852 0.1549
vn -0.6273 0.6861 -0.3685
vn -0.0115 0.9999 -0.0069
vn -0.0208 0.9997 -0.0125
vn -0.0075 1.0000 -0.0045
vn -0.1231 0.9601 0.2509
vn -0.3177 0.9307 -0.1815
vn -0.3101 0.9374 -0.1583
# 12 vertex normals

vt 0.4242 0.3922 0.0000
vt 0.0000 0.0136 0.0000
vt 0.5556 0.2925 0.0000
vt 0.4066 0.4689 0.0000
vt 0.4482 0.5505 0.0000
vt 0.2107 0.5799 0.0000
vt 0.5256 0.3599 0.0000
vt 0.5256 0.3599 0.0000
vt 0.5555 0.4326 0.0000
vt 0.4465 0.4467 0.0000
vt 0.3870 0.9297 0.0000
vt 0.9880 0.4675 0.0000
vt 0.5641 0.4512 0.0000
vt 0.5810 0.4821 0.0000
vt 0.5805 0.4823 0.0000
vt 0.4664 0.4890 0.0000
vt 0.5931 0.0000 0.0000
vt 0.7307 0.3785 0.0000
vt 0.6284 0.6680 0.0000
vt 0.4438 0.4413 0.0000
vt 0.3915 0.4693 0.0000
vt 0.4323 0.4138 0.0000
vt 0.6486 0.6122 0.0000
vt 0.7475 0.6612 0.0000
vt 1.0000 0.7409 0.0000
vt 0.9764 0.9188 0.0000
vt 1.0000 1.0000 0.0000
vt 0.9304 0.9620 0.0000
vt 0.0304 0.9606 0.0000
vt 0.0405 0.9705 0.0000
vt 0.0000 1.0000 0.0000
vt 0.9459 0.0444 0.0000
vt 1.0000 0.0136 0.0000
vt 0.9560 0.0544 0.0000
# 34 texture coords

g WangGuoJun_yingdi01
usemtl default
s 1
f 1/17/1 2/1/2 3/2/1 
f 4/4/3 5/5/4 6/6/1 
f 7/8/1 8/9/1 9/10/5 7/7/6 
f 6/6/1 5/5/4 10/11/1 
f 11/12/7 12/25/8 13/24/9 
f 8/9/1 14/15/1 15/16/10 
f 2/1/2 16/20/1 3/2/1 
f 16/20/1 17/21/1 3/2/1 
f 18/18/1 13/24/9 19/13/1 
f 20/3/11 7/7/6 21/22/12 
f 22/14/1 23/23/1 5/5/4 
f 8/9/1 15/16/10 9/10/5 
f 24/19/1 10/11/1 23/23/1 
f 7/7/6 9/10/5 21/22/12 
f 1/17/1 20/3/11 2/1/2 
f 20/3/11 21/22/12 2/1/2 
f 18/18/1 11/12/7 13/24/9 
f 25/26/1 26/27/1 27/28/1 
f 28/29/1 29/30/1 30/31/1 
f 31/32/1 32/33/1 33/34/1 
f 15/16/10 5/5/4 4/4/3 
f 9/10/5 15/16/10 4/4/3 
f 5/5/4 23/23/1 10/11/1 
# 1 polygons - 22 triangles

