# 3ds Max Wavefront OBJ Exporter v0.97b - (c)2007 guruware
# File Created: 11.08.2014 21:30:31

mtllib WangGuoJun_yingdi01.mtl

#
# object WangGuoJun_yingdi01
#

v  27.1578 159.9872 30.0166
v  8.1696 159.9872 23.6011
v  12.8041 159.9872 36.9897
v  20.3175 159.9872 51.2775
v  27.0900 159.3786 53.2125
v  32.3518 159.9872 49.6850
v  22.2525 155.8872 62.8875
v  40.6350 155.8872 55.1475
v  38.2000 155.8872 54.1477
v  44.2119 164.6219 38.9452
v  52.1361 164.6219 42.9263
v  54.9923 164.6219 20.1848
v  33.6321 162.0216 50.3480
v  40.6858 162.0216 53.2078
v  42.0599 162.0216 42.7700
v  62.5190 164.6219 41.2754
v  74.2826 164.6219 39.4049
v  73.3373 164.6219 29.3073
v  44.0795 167.6250 94.6314
v  54.9094 167.6250 85.9332
v  53.2844 167.6250 80.1799
v  42.4978 167.6250 54.0354
v  45.4970 164.6219 55.6512
v  45.5109 162.0216 55.6056
v  46.1668 162.0216 44.6704
v  19.3500 155.8872 54.1800
v  23.2200 155.8872 54.1800
v  37.0098 160.2082 52.7816
v  38.9391 160.7145 53.3811
v  -1.3162 159.9872 56.8110
v  7.7514 159.9872 53.6639
v  -0.9983 159.9872 43.0903
v  11.6100 160.0073 57.0825
v  39.5963 167.6250 72.5342
v  43.5444 167.6250 67.2005
v  39.2197 167.6250 68.6866
v  62.3375 167.6250 64.1423
v  63.7529 170.0604 60.2636
v  63.5478 164.6219 60.1862
v  17.4150 155.8872 53.2125
v  36.7650 155.8872 89.9775
v  43.7514 155.8872 89.0511
v  40.6362 155.8872 72.1995
v  29.0250 155.8872 56.1150
v  36.0018 155.8872 53.6467
v  62.9674 170.0604 71.5913
v  71.5950 170.0604 63.8550
v  60.0649 170.0604 69.6563
v  36.7650 159.9872 40.6350
v  41.5332 159.9872 42.5127
v  30.7937 159.9872 31.5200
v  44.2528 159.9872 37.5003
v  21.2850 159.3802 53.2125
v  61.9200 167.6250 84.1725
v  62.3616 164.6219 64.1403
v  43.5444 167.6250 67.2004
v  38.6388 167.6250 62.7504
v  38.8615 162.0033 41.4114
v  31.9275 155.9238 53.2125
v  58.1241 164.6219 62.1221
v  54.6385 164.6219 50.9484
v  50.3983 162.0216 46.6542
v  48.1783 167.6250 56.9700
v  58.2200 167.6250 62.1575
v  70.5417 164.6219 53.8229
v  88.9523 164.6219 37.0723
v  72.7041 164.6219 50.2750
v  43.5760 155.8872 56.3772
v  17.4150 159.9872 50.3100
v  59.9850 167.6250 69.6600
v  62.8875 167.6250 71.5950
v  70.6275 167.6250 95.7825
v  69.6600 167.6250 89.0100
v  26.1225 155.9971 55.1475
v  29.2530 159.5490 52.8926
v  36.6552 155.8872 70.2035
v  81.5215 164.6219 49.4400
v  72.6287 164.6219 64.2412
v  15.4800 159.9890 53.2125
v  18.3825 159.2911 52.2450
v  31.8251 159.2283 52.3517
v  28.3063 159.9872 10.2286
v  55.4240 159.9872 20.0276
v  54.3360 159.9872 10.1750
v  47.7451 159.9872 32.0380
v  37.9346 159.9872 21.0311
v  62.0184 170.0604 80.2928
v  65.7900 170.0604 76.4325
v  61.9200 167.6250 80.3025
v  41.8130 167.6250 83.4599
v  33.8185 159.1933 52.3155
v  14.5125 155.8872 58.0500
v  87.8973 160.0073 93.5203
v  95.7825 160.0073 95.7825
v  92.0909 160.0073 89.1155
v  91.9547 160.0073 2.9091
v  92.9222 160.0073 3.8766
v  95.7825 160.0073 -0.0000
v  2.9966 160.0073 90.5959
v  0.0000 160.0073 95.7825
v  3.9641 160.0073 91.5635
v  60.8642 164.6219 49.1247
v  43.6444 161.9850 54.6266
v  42.9275 156.7494 88.9532
v  44.0795 154.6470 94.6314
v  39.5963 154.6470 72.5342
v  35.4342 167.6250 69.9874
v  35.4342 154.6470 69.9874
v  0.0000 159.9872 -0.0000
v  21.7468 159.9872 -0.0000
v  16.8374 159.9872 14.2682
v  10.2911 159.9872 8.7208
v  12.5498 159.9872 12.8458
v  14.4687 159.9872 15.9918
v  -0.6437 159.9872 27.7852
v  4.9896 159.9872 14.4144
v  25.7610 159.9872 21.8301
v  53.2125 159.9872 -0.0000
v  36.0876 159.9872 -0.0000
v  45.5765 167.6250 75.8745
v  64.6827 164.6219 56.7929
v  74.8746 164.6219 60.5031
# 122 vertices

vn 0.0000 1.0000 -0.0000
vn -0.0000 1.0000 0.0000
vn -0.0000 1.0000 -0.0000
vn -0.2027 0.7640 0.6125
vn 0.0068 0.7799 0.6259
vn -0.3449 0.9338 0.0956
vn -0.0010 1.0000 0.0021
vn -0.2192 0.7919 0.5699
vn 0.0066 0.9816 0.1908
vn -0.4489 0.8917 0.0581
vn -0.1327 0.9882 0.0760
vn -0.5596 0.7978 0.2245
vn -0.3146 0.9103 -0.2692
vn -0.2470 0.5850 -0.7725
vn -0.0676 0.2477 -0.9665
vn -0.2471 0.5850 -0.7725
vn -0.1181 0.9623 0.2448
vn -0.1310 0.8595 0.4941
vn -0.0594 0.7948 0.6039
vn -0.3154 0.3441 0.8844
vn -0.2786 0.3656 0.8881
vn -0.0003 1.0000 -0.0010
vn -0.0007 1.0000 -0.0021
vn 0.2852 0.9338 0.2161
vn -0.7385 0.3118 -0.5978
vn -0.3064 0.5801 -0.7548
vn -0.1623 0.9210 -0.3541
vn 0.1495 0.7291 0.6678
vn 0.0620 0.9570 0.2835
vn -0.1076 0.7818 0.6142
vn -0.4759 0.8516 0.2195
vn 0.3061 0.6663 -0.6800
vn -0.0519 0.9792 0.1960
vn -0.1190 0.9738 -0.1939
vn -0.1924 0.6521 -0.7333
vn -0.3152 0.9365 -0.1539
vn -0.0875 0.6871 0.7213
vn -0.3362 0.5687 -0.7507
vn 0.0102 0.6975 -0.7165
vn 0.1586 0.7479 0.6446
vn 0.3162 0.7030 -0.6370
vn -0.5343 0.7980 -0.2788
vn -0.6970 0.7078 -0.1149
vn -0.9113 0.3032 0.2786
vn 0.3277 0.7001 -0.6344
vn 0.3141 0.7086 -0.6319
vn -0.1854 0.8769 0.4435
vn 0.0327 0.9958 0.0855
vn -0.0577 0.9791 0.1949
vn -0.4412 0.8879 0.1301
vn -0.7112 0.6181 0.3350
vn -0.2858 0.4152 0.8637
vn -0.4238 0.9046 -0.0464
vn -0.0875 0.6871 0.7212
vn -0.1233 0.8825 0.4539
vn 0.1169 0.8391 0.5313
vn 0.2551 0.7801 -0.5713
vn 0.3486 0.8301 0.4353
vn 0.1212 0.7048 0.6990
vn 0.0723 0.7893 0.6097
vn 0.0000 1.0000 0.0000
vn -0.9933 0.0397 -0.1083
vn -0.2002 0.5256 0.8268
vn 0.4029 0.8828 0.2417
vn -0.9800 0.0000 0.1988
vn -0.4155 0.2553 0.8730
vn -0.9800 -0.0000 0.1988
vn -0.5219 -0.0000 0.8530
vn 0.1995 0.9005 -0.3863
# 69 vertex normals

vt 0.3134 0.2933 0.0000
vt 0.2464 0.0977 0.0000
vt 0.3862 0.1454 0.0000
vt 0.5354 0.2228 0.0000
vt 0.5556 0.2925 0.0000
vt 0.5187 0.3467 0.0000
vt 0.6566 0.2427 0.0000
vt 0.5758 0.4320 0.0000
vt 0.5653 0.4070 0.0000
vt 0.4066 0.4689 0.0000
vt 0.4482 0.5505 0.0000
vt 0.2107 0.5799 0.0000
vt 0.5256 0.3599 0.0000
vt 0.5555 0.4326 0.0000
vt 0.4465 0.4467 0.0000
vt 0.4309 0.6574 0.0000
vt 0.4114 0.7786 0.0000
vt 0.3059 0.7689 0.0000
vt 0.9880 0.4675 0.0000
vt 0.8972 0.5791 0.0000
vt 0.8371 0.5623 0.0000
vt 0.5641 0.4512 0.0000
vt 0.5810 0.4821 0.0000
vt 0.5805 0.4823 0.0000
vt 0.4664 0.4890 0.0000
vt 0.5657 0.2128 0.0000
vt 0.5657 0.2527 0.0000
vt 0.5511 0.3947 0.0000
vt 0.5573 0.4146 0.0000
vt 0.5931 0.0000 0.0000
vt 0.5603 0.0934 0.0000
vt 0.4499 0.0033 0.0000
vt 0.5960 0.1331 0.0000
vt 0.7573 0.4213 0.0000
vt 0.7016 0.4620 0.0000
vt 0.7171 0.4175 0.0000
vt 0.6697 0.6556 0.0000
vt 0.6292 0.6701 0.0000
vt 0.6284 0.6680 0.0000
vt 0.5556 0.1929 0.0000
vt 0.9394 0.3922 0.0000
vt 0.9297 0.4641 0.0000
vt 0.7538 0.4321 0.0000
vt 0.5859 0.3125 0.0000
vt 0.5601 0.3843 0.0000
vt 0.7474 0.6620 0.0000
vt 0.6667 0.7509 0.0000
vt 0.7272 0.6322 0.0000
vt 0.4242 0.3922 0.0000
vt 0.4438 0.4413 0.0000
vt 0.3290 0.3307 0.0000
vt 0.3915 0.4693 0.0000
vt 0.5556 0.2328 0.0000
vt 0.8788 0.6513 0.0000
vt 0.6696 0.6558 0.0000
vt 0.6551 0.4115 0.0000
vt 0.4323 0.4138 0.0000
vt 0.5556 0.3424 0.0000
vt 0.6486 0.6122 0.0000
vt 0.5319 0.5763 0.0000
vt 0.4871 0.5326 0.0000
vt 0.5947 0.5097 0.0000
vt 0.6489 0.6132 0.0000
vt 0.5619 0.7400 0.0000
vt 0.3870 0.9297 0.0000
vt 0.5249 0.7624 0.0000
vt 0.5886 0.4623 0.0000
vt 0.5253 0.1929 0.0000
vt 0.7273 0.6313 0.0000
vt 0.7475 0.6612 0.0000
vt 1.0000 0.7409 0.0000
vt 0.9293 0.7310 0.0000
vt 0.5758 0.2826 0.0000
vt 0.5522 0.3148 0.0000
vt 0.7329 0.3911 0.0000
vt 0.5161 0.8531 0.0000
vt 0.6707 0.7615 0.0000
vt 0.5556 0.1730 0.0000
vt 0.5455 0.2029 0.0000
vt 0.5466 0.3413 0.0000
vt 0.1068 0.3051 0.0000
vt 0.2091 0.5844 0.0000
vt 0.1062 0.5732 0.0000
vt 0.3345 0.5053 0.0000
vt 0.2196 0.4043 0.0000
vt 0.8383 0.6523 0.0000
vt 0.7980 0.6911 0.0000
vt 0.8384 0.6513 0.0000
vt 0.8714 0.4441 0.0000
vt 0.5462 0.3618 0.0000
vt 0.6061 0.1630 0.0000
vt 0.9764 0.9188 0.0000
vt 1.0000 1.0000 0.0000
vt 0.9304 0.9620 0.0000
vt 0.0304 0.9606 0.0000
vt 0.0405 0.9705 0.0000
vt 0.0000 1.0000 0.0000
vt 0.9459 0.0444 0.0000
vt 1.0000 0.0136 0.0000
vt 0.9560 0.0544 0.0000
vt 0.5129 0.6404 0.0000
vt 0.5703 0.4630 0.0000
vt 0.9287 0.4556 0.0000
vt 0.7307 0.3785 0.0000
vt 0.0000 0.0136 0.0000
vt 0.0000 0.2376 0.0000
vt 0.1490 0.1870 0.0000
vt 0.0910 0.1196 0.0000
vt 0.1341 0.1428 0.0000
vt 0.1669 0.1626 0.0000
vt 0.2901 0.0069 0.0000
vt 0.1505 0.0650 0.0000
vt 0.2267 0.2774 0.0000
vt 0.0000 0.5616 0.0000
vt 0.0000 0.3852 0.0000
vt 0.7922 0.4829 0.0000
vt 0.5929 0.6797 0.0000
vt 0.6317 0.7846 0.0000
# 118 texture coords

g WangGuoJun_yingdi01
usemtl default
s 1
f 1/1/1 2/2/2 3/3/3 
f 4/4/4 5/5/5 6/6/6 
f 7/7/7 8/8/8 9/9/9 
f 10/10/10 11/11/11 12/12/1 
f 13/13/12 14/14/9 15/15/13 
f 16/16/1 17/17/1 18/18/1 
f 19/19/1 20/20/1 21/21/1 
f 14/14/9 22/22/14 23/23/15 
f 14/14/9 24/24/16 25/25/17 
f 26/26/18 7/7/7 27/27/19 
f 26/26/18 27/27/19 5/5/5 
f 13/13/12 28/28/20 29/29/21 
f 30/30/22 31/31/23 32/32/3 
f 30/30/22 33/33/24 31/31/23 
f 34/34/1 35/35/1 36/36/1 
f 37/37/25 38/38/26 39/39/27 
f 40/40/28 7/7/7 26/26/18 
f 41/41/26 42/42/28 43/43/1 
f 44/44/29 7/7/7 45/45/30 
f 46/46/31 47/47/32 48/48/33 
f 49/49/34 50/50/35 51/51/1 1/1/1 
f 50/50/35 52/52/36 51/51/1 
f 53/53/37 26/26/18 5/5/5 
f 19/19/1 54/54/1 20/20/1 
f 55/55/38 37/37/25 39/39/27 
f 36/36/1 35/35/1 56/35/1 57/56/1 
f 6/6/6 13/13/12 58/57/39 
f 49/49/34 15/15/13 50/50/35 
f 44/44/29 45/45/30 59/58/40 
f 23/23/15 60/59/41 61/60/1 23/23/42 
f 62/61/43 23/23/15 23/23/42 11/11/11 
f 48/48/44 47/47/32 38/38/26 
f 38/38/26 47/47/32 39/39/27 
f 14/14/9 25/25/17 15/15/13 
f 63/62/45 64/63/46 23/23/15 
f 60/59/41 37/37/25 55/55/38 
f 65/64/1 66/65/1 67/66/1 
f 8/8/8 7/7/7 68/67/47 
f 8/8/8 68/67/47 14/14/9 
f 69/68/48 4/4/49 49/49/34 
f 70/69/50 71/70/51 46/46/31 
f 25/25/17 62/61/43 11/11/11 
f 23/23/15 64/63/46 60/59/41 
f 50/50/35 15/15/13 52/52/36 
f 45/45/30 7/7/7 9/9/52 
f 19/19/1 72/71/53 73/72/54 
f 60/59/41 55/55/38 39/39/27 
f 7/7/7 44/44/29 74/73/55 
f 74/73/55 44/44/29 75/74/56 
f 41/41/1 43/43/1 76/75/1 
f 77/76/1 66/65/1 65/64/1 
f 39/39/27 47/47/32 78/77/57 
f 79/78/58 69/68/48 33/33/24 
f 49/49/34 58/57/39 15/15/13 
f 13/13/12 15/15/13 58/57/39 
f 80/79/1 26/26/18 53/53/37 
f 53/53/37 5/5/5 4/4/49 
f 81/80/59 59/58/40 45/45/30 
f 40/40/28 26/26/18 80/79/60 
f 82/81/1 83/82/1 84/83/1 82/81/1 
f 52/52/36 85/84/1 86/85/1 
f 75/74/56 59/58/40 81/80/59 
f 5/5/5 74/73/55 75/74/56 
f 52/52/36 15/15/13 10/10/10 
f 27/27/19 7/7/7 74/73/55 
f 27/27/19 74/73/55 5/5/5 
f 64/63/46 37/37/25 60/59/41 
f 64/63/46 34/34/1 37/37/25 
f 24/24/16 23/23/15 62/61/43 
f 87/86/25 88/87/61 46/46/31 
f 89/88/53 87/86/62 46/46/31 
f 7/7/7 41/41/1 76/75/1 
f 19/19/1 73/72/1 54/54/1 
f 70/69/50 48/48/44 37/37/25 
f 34/34/1 70/69/50 37/37/25 
f 4/4/49 6/6/6 49/49/34 
f 6/6/6 58/57/39 49/49/34 
f 69/68/48 80/79/60 4/4/49 
f 46/46/31 88/87/61 47/47/32 
f 25/25/17 24/24/16 62/61/43 
f 90/89/1 19/19/1 21/21/1 
f 48/48/44 70/69/50 46/46/31 
f 81/80/59 91/90/63 6/6/6 
f 71/70/51 89/88/53 46/46/31 
f 70/69/50 89/88/53 71/70/51 
f 79/78/58 80/79/60 69/68/48 
f 75/74/56 81/80/59 6/6/6 
f 75/74/56 44/44/29 59/58/40 
f 80/79/60 53/53/37 4/4/49 
f 33/33/24 92/91/30 40/40/28 
f 93/92/64 94/93/40 95/94/4 
f 96/95/46 97/96/65 98/97/29 
f 99/98/33 100/99/33 101/100/33 
f 79/78/58 40/40/28 80/79/60 
f 33/33/24 40/40/28 79/78/58 
f 7/7/7 76/75/1 68/67/47 
f 92/91/1 7/7/7 40/40/28 
f 6/6/6 91/90/63 13/13/12 
f 25/25/17 11/11/11 10/10/10 
f 15/15/13 25/25/17 10/10/10 
f 8/8/8 14/14/9 29/29/21 
f 61/60/1 60/59/41 102/101/1 
f 23/23/15 24/24/16 14/14/9 
s off
f 14/14/66 68/67/66 103/102/33 
f 104/103/67 105/19/67 19/19/67 90/89/67 
f 106/34/68 34/34/68 107/104/68 108/104/68 
s 1
f 37/37/25 48/48/44 38/38/26 
f 5/5/5 75/74/56 6/6/6 
f 81/80/59 45/45/30 91/90/63 
f 91/90/63 28/28/20 13/13/12 
f 91/90/63 45/45/30 28/28/20 
f 28/28/20 45/45/30 9/9/52 
f 29/29/21 28/28/20 9/9/52 
f 29/29/21 9/9/52 8/8/8 
f 29/29/21 14/14/9 13/13/12 
f 109/105/3 82/81/1 82/81/1 82/81/1 
f 110/106/1 109/105/3 82/81/1 
f 111/107/1 82/81/1 82/81/1 112/108/1 
f 111/107/1 112/108/1 113/109/1 
f 113/109/1 109/105/3 114/110/1 
f 69/68/48 49/49/34 1/1/1 
f 33/33/24 69/68/48 31/31/23 
f 32/32/3 3/3/3 2/2/2 115/111/1 
f 31/31/23 69/68/48 3/3/3 32/32/3 
f 3/3/3 69/68/48 1/1/1 
f 114/110/1 109/105/3 116/112/2 
f 116/112/2 109/105/3 115/111/1 
f 115/111/1 2/2/2 116/112/2 
f 116/112/2 2/2/2 1/1/1 114/110/1 
f 51/51/1 113/109/1 114/110/1 1/1/1 
f 113/109/1 51/51/1 117/113/1 
f 82/81/1 109/105/3 112/108/1 
f 112/108/1 109/105/3 113/109/1 
f 84/83/1 118/114/1 82/81/1 
f 82/81/1 118/114/1 119/115/1 82/81/1 
f 119/115/1 110/106/1 82/81/1 
f 113/109/1 117/113/1 111/107/1 
f 85/84/1 83/82/1 86/85/1 
f 82/81/1 86/85/1 83/82/1 82/81/1 
f 86/85/1 117/113/1 52/52/36 
f 86/85/1 82/81/1 117/113/1 
f 82/81/1 111/107/1 117/113/1 
f 52/52/36 117/113/1 51/51/1 
f 54/54/1 89/88/53 20/20/1 
f 20/20/1 89/88/53 21/21/1 
f 70/69/50 34/34/1 120/116/1 
s off
f 106/34/67 105/19/67 104/103/67 34/34/67 
s 1
f 120/116/1 34/34/1 90/89/1 
s off
f 90/89/67 34/34/67 104/103/67 
s 1
f 89/88/53 70/69/50 21/21/1 
f 34/34/1 64/63/46 35/35/1 
f 63/62/45 56/35/1 35/35/1 64/63/46 
f 23/23/15 22/22/69 63/62/45 
f 63/62/45 22/22/69 56/35/1 
f 56/35/1 22/22/69 57/56/1 
f 57/56/1 107/104/1 36/36/1 
f 36/36/1 107/104/1 34/34/1 
f 90/89/1 21/21/1 120/116/1 
f 120/116/1 21/21/1 70/69/50 
f 67/66/1 17/17/1 16/16/1 
f 102/101/1 60/59/41 121/117/1 
f 67/66/1 66/65/1 17/17/1 
f 17/17/1 66/65/1 18/18/1 
f 11/11/1 16/16/1 12/12/1 11/11/11 
f 16/16/1 18/18/1 12/12/1 
f 121/117/1 60/59/41 39/39/27 
f 39/39/27 78/77/57 122/118/1 
f 65/64/1 122/118/1 77/76/1 
f 122/118/1 65/64/1 39/39/27 
f 67/66/1 121/117/1 39/39/27 65/64/1 
f 16/16/1 102/101/1 121/117/1 67/66/1 
f 102/101/1 16/16/1 11/11/1 
f 11/11/11 61/60/1 102/101/1 11/11/1 
f 61/60/1 11/11/11 23/23/42 
# 21 polygons - 153 triangles

