# 3ds Max Wavefront OBJ Exporter v0.97b - (c)2007 guruware
# File Created: 15.08.2014 13:23:27

mtllib WangGuoJun_ChengZhen_02.mtl

#
# object WangGuoJun_ChengZhen_02
#

v  18.6479 160.0073 -0.0000
v  18.6832 160.0073 18.5097
v  37.9390 160.0073 -0.0000
v  18.9349 160.0073 95.7825
v  38.0866 160.0073 77.0385
v  18.7955 160.0073 77.0385
v  38.0481 160.0073 57.5037
v  18.7570 160.0073 57.5037
v  0.0000 160.0073 18.5097
v  18.7185 160.0073 37.5384
v  0.0000 160.0073 57.5037
v  0.0000 160.0073 95.7825
v  56.5205 160.0073 95.7825
v  76.0658 160.0073 77.0385
v  56.3811 160.0073 77.0385
v  76.0466 160.0073 57.5037
v  56.3426 160.0073 57.5037
v  56.3041 160.0073 37.5384
v  76.0097 160.0073 18.5097
v  56.2688 160.0073 18.5097
v  0.0000 160.0073 77.0385
v  95.7825 160.0073 57.5037
v  95.7825 160.0073 37.5384
v  37.9743 160.0073 18.5097
v  0.0000 160.0073 37.5384
v  95.7825 160.0073 18.5097
v  95.7825 160.0073 -0.0000
v  56.2335 160.0073 -0.0000
v  38.2260 160.0073 95.7825
v  38.0097 160.0073 37.5384
v  76.1355 160.0073 95.7825
v  95.7825 160.0073 77.0385
v  76.0273 160.0073 37.5384
v  75.9920 160.0073 -0.0000
v  95.7825 160.0073 95.7825
v  0.0000 160.0073 -0.0000
# 36 vertices

vn 0.0000 1.0000 -0.0000
# 1 vertex normals

vt 0.0000 0.1947 0.0000
vt 0.1932 0.1951 0.0000
vt 0.0000 0.3961 0.0000
vt 1.0000 0.1977 0.0000
vt 0.8043 0.3976 0.0000
vt 0.8043 0.1962 0.0000
vt 0.6004 0.3972 0.0000
vt 0.6004 0.1958 0.0000
vt 0.1932 0.0000 0.0000
vt 0.3919 0.1954 0.0000
vt 0.6004 0.0000 0.0000
vt 1.0000 0.0000 0.0000
vt 1.0000 0.5901 0.0000
vt 0.8043 0.7942 0.0000
vt 0.8043 0.5886 0.0000
vt 0.6004 0.7940 0.0000
vt 0.6004 0.5882 0.0000
vt 0.3919 0.5878 0.0000
vt 0.1932 0.7936 0.0000
vt 0.1932 0.5875 0.0000
vt 0.8043 0.0000 0.0000
vt 0.6004 1.0000 0.0000
vt 0.3919 1.0000 0.0000
vt 0.1932 0.3965 0.0000
vt 0.3919 0.0000 0.0000
vt 0.1932 1.0000 0.0000
vt 0.0000 1.0000 0.0000
vt 0.0000 0.5871 0.0000
vt 1.0000 0.3991 0.0000
vt 0.3919 0.3968 0.0000
vt 1.0000 0.7949 0.0000
vt 0.8043 1.0000 0.0000
vt 0.3919 0.7937 0.0000
vt 0.0000 0.7934 0.0000
vt 1.0000 1.0000 0.0000
vt 0.0000 0.0000 0.0000
# 36 texture coords

g WangGuoJun_ChengZhen_02
usemtl default
s 1
f 1/1/1 2/2/1 3/3/1 
f 4/4/1 5/5/1 6/6/1 
f 6/6/1 7/7/1 8/8/1 
f 1/1/1 9/9/1 2/2/1 
f 10/10/1 11/11/1 8/8/1 
f 6/6/1 12/12/1 4/4/1 
f 13/13/1 14/14/1 15/15/1 
f 15/15/1 16/16/1 17/17/1 
f 18/18/1 19/19/1 20/20/1 
f 17/17/1 18/18/1 7/7/1 
f 11/11/1 21/21/1 8/8/1 
f 22/22/1 23/23/1 16/16/1 
f 2/2/1 10/10/1 24/24/1 
f 9/9/1 25/25/1 2/2/1 
f 26/26/1 27/27/1 19/19/1 
f 24/24/1 28/28/1 3/3/1 
f 29/29/1 15/15/1 5/5/1 
f 5/5/1 17/17/1 7/7/1 
f 30/30/1 8/8/1 7/7/1 
f 30/30/1 20/20/1 24/24/1 
f 31/31/1 32/32/1 14/14/1 
f 14/14/1 22/22/1 16/16/1 
f 33/33/1 26/26/1 19/19/1 
f 33/33/1 17/17/1 16/16/1 
f 34/34/1 20/20/1 19/19/1 
f 31/31/1 35/35/1 32/32/1 
f 13/13/1 31/31/1 14/14/1 
f 29/29/1 13/13/1 15/15/1 
f 4/4/1 29/29/1 5/5/1 
f 6/6/1 21/21/1 12/12/1 
f 21/21/1 6/6/1 8/8/1 
f 6/6/1 5/5/1 7/7/1 
f 5/5/1 15/15/1 17/17/1 
f 15/15/1 14/14/1 16/16/1 
f 14/14/1 32/32/1 22/22/1 
f 23/23/1 33/33/1 16/16/1 
f 33/33/1 18/18/1 17/17/1 
f 18/18/1 30/30/1 7/7/1 
f 30/30/1 10/10/1 8/8/1 
f 10/10/1 25/25/1 11/11/1 
f 25/25/1 10/10/1 2/2/1 
f 10/10/1 30/30/1 24/24/1 
f 30/30/1 18/18/1 20/20/1 
f 18/18/1 33/33/1 19/19/1 
f 33/33/1 23/23/1 26/26/1 
f 27/27/1 34/34/1 19/19/1 
f 34/34/1 28/28/1 20/20/1 
f 24/24/1 20/20/1 28/28/1 
f 2/2/1 24/24/1 3/3/1 
f 1/1/1 36/36/1 9/9/1 
# 0 polygons - 50 triangles

