# 3ds Max Wavefront OBJ Exporter v0.97b - (c)2007 guruware
# File Created: 08.08.2014 11:59:32

mtllib TLPM_Boss_01_m.mtl

#
# object TLPM_Boss_01_m
#

v  95.4112 148.2146 2.6839
v  95.4112 148.2146 -0.0000
v  92.7125 148.2146 -0.0000
v  18.5324 157.8191 38.4077
v  62.6437 157.7916 65.5350
v  60.7163 157.8191 57.8250
v  0.0000 159.9780 95.4112
v  48.4718 159.9780 95.4112
v  38.5500 159.9780 78.0638
v  42.5130 157.8191 30.2702
v  0.0000 148.2146 -0.0000
v  0.0000 148.2207 3.8853
v  3.8831 148.2146 -0.0000
v  48.1875 157.8191 34.6950
v  53.8418 157.8191 32.1159
v  0.0000 159.9780 34.9861
v  22.3922 159.9780 49.8673
v  46.5628 157.8191 86.5451
v  53.3476 157.1690 31.0304
v  65.1865 158.5906 49.9358
v  66.2107 157.9564 51.4917
v  86.9889 158.5906 45.5298
v  70.3984 158.5906 16.1958
v  64.9812 157.8191 52.0642
v  66.4987 156.3816 53.0062
v  51.6177 152.7848 29.0837
v  63.6622 157.8191 49.6948
v  95.4112 148.2146 92.2471
v  92.1666 148.2146 95.4112
v  95.4112 148.2146 95.4112
v  54.4831 158.5906 31.3006
v  47.6698 152.6058 31.5825
# 32 vertices

vn 0.0000 1.0000 -0.0000
vn 0.0002 1.0000 0.0001
vn -0.0000 1.0000 0.0010
vn 0.0349 0.9990 0.0287
vn 0.0000 1.0000 -0.0016
vn -0.1218 0.9732 -0.1949
vn -0.0999 0.9706 -0.2190
vn 0.0010 1.0000 -0.0006
vn -0.3514 0.7021 -0.6193
vn -0.1140 0.9727 0.2023
vn 0.1153 0.8873 0.4466
vn 0.0044 0.9998 0.0215
vn 0.1403 0.9354 0.3246
vn 0.4228 0.7649 0.4860
vn -0.4696 0.4949 -0.7311
vn -0.1153 0.9913 0.0642
vn -0.4837 0.4836 -0.7295
# 17 vertex normals

vt 0.0281 1.0000 0.0000
vt 0.0000 1.0000 0.0000
vt 0.0000 0.9717 0.0000
vt 0.5051 0.2525 0.0000
vt 0.7273 0.6162 0.0000
vt 0.6061 0.6364 0.0000
vt 1.0000 -0.0000 0.0000
vt 1.0000 0.4040 0.0000
vt 0.8182 0.4040 0.0000
vt 0.3939 0.4747 0.0000
vt 0.0000 0.0000 0.0000
vt 0.0407 0.0000 0.0000
vt 0.0000 0.0407 0.0000
vt 0.3636 0.5051 0.0000
vt 0.3366 0.5643 0.0000
vt 0.5354 -0.0000 0.0000
vt 0.5227 0.2347 0.0000
vt 0.8080 0.4293 0.0000
vt 0.3252 0.5591 0.0000
vt 0.4412 0.6348 0.0000
vt 0.5397 0.6940 0.0000
vt 0.4949 0.8081 0.0000
vt 0.2463 0.7658 0.0000
vt 0.5457 0.6811 0.0000
vt 0.5758 0.6667 0.0000
vt 0.3048 0.5410 0.0000
vt 0.5208 0.6672 0.0000
vt 0.9668 1.0000 0.0000
vt 1.0000 0.9660 0.0000
vt 1.0000 1.0000 0.0000
vt 0.3030 0.6162 0.0000
vt 0.3310 0.4996 0.0000
# 32 texture coords

g TLPM_Boss_01_m
usemtl _TLPM_Boss_01default
s 1
f 1/1/1 2/2/1 3/3/1 
f 4/4/2 5/5/3 6/6/4 
f 7/7/1 8/8/1 9/9/1 
f 4/4/2 6/6/4 10/10/1 
f 11/11/5 12/12/5 13/13/5 
f 14/14/6 6/6/4 15/15/7 
f 16/16/1 7/7/1 17/17/1 
f 4/4/2 18/18/8 5/5/3 
f 14/14/6 15/15/7 19/19/9 
f 20/20/10 21/21/11 22/22/12 23/23/1 
f 24/24/13 21/21/11 20/20/10 
f 24/24/13 25/25/14 21/21/11 
f 26/26/15 14/14/6 19/19/9 
f 15/15/7 6/6/4 27/27/16 
f 6/6/4 24/24/13 27/27/16 
f 28/28/1 29/29/1 30/30/1 
f 31/31/1 20/20/10 23/23/1 
f 10/10/1 6/6/4 14/14/6 
f 7/7/1 9/9/1 17/17/1 
f 32/32/17 14/14/6 26/26/15 
f 24/24/13 6/6/4 25/25/14 
f 24/24/13 20/20/10 27/27/16 
# 1 polygons - 21 triangles

