# 3ds Max Wavefront OBJ Exporter v0.97b - (c)2007 guruware
# File Created: 15.07.2014 16:48:38

mtllib PVE_01.mtl

#
# object default
#

v  11.6100 143.6916 -0.0000
v  11.6100 150.0092 63.8550
v  11.6100 150.0092 -0.0000
v  0.0000 143.6916 63.8550
v  11.6100 143.6916 63.8550
v  0.0000 143.6916 0.6450
v  46.4400 150.0092 26.4869
v  46.4400 145.9110 38.7000
v  46.4400 145.9110 26.4869
v  63.8550 150.0092 26.4869
v  46.4400 150.0092 38.7000
v  63.8550 150.0092 38.7000
v  63.8550 145.9110 38.7000
v  63.8550 145.9110 26.4869
v  47.1324 150.0092 63.8550
v  45.9187 150.0092 -0.0000
v  63.8550 150.0092 -0.0000
v  63.8550 150.0092 63.8550
# 18 vertices

vn -1.0000 0.0000 -0.0000
vn 0.0000 1.0000 -0.0000
vn 1.0000 0.0000 -0.0000
vn -0.0000 0.0000 1.0000
vn 0.0000 0.0000 -1.0000
vn 0.0000 -0.0000 -1.0000
# 6 vertex normals

vt 0.0000 0.1818 0.0000
vt 1.0000 0.1818 0.0000
vt 1.0000 0.0000 0.0000
vt 0.0101 -0.0000 0.0000
vt 0.4148 0.7273 0.0000
vt 0.6061 0.7273 0.0000
vt 0.4148 1.0000 0.0000
vt 0.6061 1.0000 0.0000
vt 1.0000 0.7381 0.0000
vt 0.0000 0.7191 0.0000
vt 0.0000 1.0000 0.0000
vt 1.0000 1.0000 0.0000
# 12 texture coords

g default
usemtl default
s off
f 1/1/1 2/2/1 3/1/1 
f 4/3/2 5/2/2 6/4/2 
f 7/5/3 8/6/3 9/5/3 
f 9/5/4 10/7/4 7/5/4 
f 11/6/5 12/8/5 8/6/5 
f 8/6/2 13/8/2 9/5/2 
f 12/8/6 13/8/6 8/6/6 
f 7/5/3 11/6/3 8/6/3 
f 9/5/4 14/7/4 10/7/4 
f 13/8/2 14/7/2 9/5/2 
f 1/1/1 5/2/1 2/2/1 
f 5/2/2 1/1/2 6/4/2 
f 15/9/2 12/8/2 11/6/2 
f 7/5/2 10/7/2 16/10/2 
f 10/7/2 17/11/2 16/10/2 
f 15/9/2 18/12/2 12/8/2 
f 7/5/2 3/1/2 2/2/2 11/6/2 
f 7/5/2 16/10/2 3/1/2 
f 11/6/2 2/2/2 15/9/2 
# 1 polygons - 18 triangles

