# 3ds Max Wavefront OBJ Exporter v0.97b - (c)2007 guruware
# File Created: 15.07.2014 21:29:28

mtllib YiZhan_10_m.mtl

#
# object Object002
#

v  57.6456 145.4375 16.1472
v  54.8901 145.4375 47.0895
v  69.2257 145.4375 29.5168
v  47.0286 145.4375 47.0895
v  41.4793 145.4375 36.9157
v  62.2891 148.5174 63.7374
v  86.7984 148.5174 62.8125
v  63.6764 148.5174 57.2631
v  50.2752 145.4375 22.4891
v  76.1623 148.5174 43.3900
v  63.6764 148.5174 51.2514
v  60.9018 148.5562 58.1880
v  57.2023 146.9632 53.5637
v  58.6694 147.1842 55.4435
v  61.3642 147.0820 50.7891
v  56.0941 146.3108 49.2752
v  60.9018 146.2986 48.0144
v  85.8735 148.5174 43.8525
v  59.0520 145.6510 46.1646
v  61.8266 145.4375 42.9276
v  42.5078 145.4375 23.2035
v  61.8266 147.9578 56.3382
v  68.3008 148.5174 70.6740
v  72.9252 148.5174 73.4485
v  87.7233 148.5174 52.6388
v  62.5168 148.1694 49.8022
v  59.5145 147.8902 57.2631
v  34.7387 145.4375 12.1081
v  24.2796 145.4375 35.9670
v  16.1151 145.4375 31.0540
v  18.3315 145.4375 10.6044
v  4.4631 145.4375 26.2207
v  31.7314 145.4375 44.9224
v  26.0242 145.4375 41.8321
v  8.1068 145.4375 9.4962
# 35 vertices

vn 0.0000 1.0000 -0.0000
vn -0.0426 0.9934 -0.1068
vn 0.0026 1.0000 0.0005
vn -0.1008 0.9911 -0.0871
vn -0.3920 0.9184 0.0537
vn -0.0815 0.9732 -0.2149
vn -0.0770 0.9906 -0.1134
vn -0.1412 0.9784 -0.1511
vn -0.4043 0.9104 -0.0875
vn -0.0708 0.9715 -0.2261
vn -0.2090 0.9573 -0.1998
vn -0.0994 0.9748 -0.1997
vn -0.0306 0.9986 -0.0423
vn -0.1787 0.9549 -0.2370
vn -0.6291 0.7691 0.1127
vn -0.1595 0.9302 -0.3307
# 16 vertex normals

vt 0.3316 0.6874 0.0000
vt 0.5291 0.6392 0.0000
vt 0.4809 0.6151 0.0000
vt 0.5869 0.6440 0.0000
vt 0.2343 0.5237 0.0000
vt 0.1682 0.6005 0.0000
vt 0.5483 0.9138 0.0000
vt 0.6832 0.6777 0.0000
vt 0.6687 0.8367 0.0000
vt 0.6302 0.6488 0.0000
vt 0.5965 0.6633 0.0000
vt 0.7651 0.7596 0.0000
vt 0.4520 0.7934 0.0000
vt 0.5467 0.6755 0.0000
vt 0.4568 0.8945 0.0000
vt 0.6061 0.6344 0.0000
vt 0.2417 0.4428 0.0000
vt 0.5580 0.5959 0.0000
vt 0.5775 0.6111 0.0000
vt 0.4905 0.5718 0.0000
vt 0.5133 0.5843 0.0000
vt 0.5001 0.6344 0.0000
vt 0.4472 0.6440 0.0000
vt 0.5965 0.6199 0.0000
vt 0.5188 0.6512 0.0000
vt 0.3879 0.2868 0.0000
vt 0.1105 0.1910 0.0000
vt 0.1509 0.3792 0.0000
vt 0.2731 0.0465 0.0000
vt 0.3235 0.1679 0.0000
vt 0.3532 0.2133 0.0000
vt 0.4407 0.2992 0.0000
vt 0.0989 0.0844 0.0000
vt 0.4198 0.4663 0.0000
vt 0.4564 0.3470 0.0000
vt 0.3845 0.4321 0.0000
# 36 texture coords

g Object002
usemtl _YiZhan_10_Terrain26_Terrain26_Terrain26_Terrain26_Terrain26default
s 1
f 1/6/1 2/20/2 3/1/1 
f 4/34/1 2/20/2 5/36/1 
f 6/10/3 7/9/1 8/11/4 
f 9/5/1 2/20/2 1/6/1 
f 10/13/1 11/14/5 7/9/1 
f 12/16/6 6/10/3 8/11/4 
f 13/18/7 14/19/8 15/2/9 
f 16/21/10 13/18/7 17/22/11 
f 10/13/1 7/9/1 18/15/1 
f 19/3/12 17/22/11 20/23/13 
f 21/17/1 5/36/1 2/20/2 
f 14/19/8 22/4/14 15/2/9 
f 22/4/14 8/11/4 15/2/9 
f 23/8/1 24/12/1 7/9/1 
f 6/10/3 23/8/1 7/9/1 
f 7/9/1 25/7/1 18/15/1 
f 16/21/10 17/22/11 19/3/12 
f 13/18/7 15/2/9 17/22/11 
f 15/2/9 26/25/15 17/22/11 
f 2/20/2 20/23/13 3/1/1 
f 9/5/1 21/17/1 2/20/2 
f 27/24/16 12/16/6 22/4/14 
f 12/16/6 8/11/4 22/4/14 
f 16/21/10 19/3/12 2/20/2 
f 2/20/2 19/3/12 20/23/13 
f 15/2/9 8/11/4 11/14/5 
f 15/2/9 11/14/5 26/25/15 
f 14/19/8 27/24/16 22/4/14 
f 28/28/1 29/31/1 21/17/1 
f 29/31/1 5/35/1 21/17/1 
f 30/30/1 29/31/1 31/27/1 
f 31/27/1 29/31/1 28/28/1 
f 32/29/1 30/30/1 31/27/1 
f 33/32/1 5/35/1 34/26/1 
f 32/29/1 31/27/1 35/33/1 
f 29/31/1 34/26/1 5/35/1 
s off
f 7/9/1 11/14/1 8/11/1 
# 0 polygons - 37 triangles

