# 3ds Max Wavefront OBJ Exporter v0.97b - (c)2007 guruware
# File Created: 26.09.2014 16:39:48

mtllib BoDeYiJi_01.mtl

#
# object default
#

v  96.0000 0.0000 -93.7122
v  96.0000 0.0000 -96.0000
v  93.7185 0.0000 -96.0000
v  93.7480 0.0000 -0.0000
v  96.0000 0.0000 -0.0000
v  96.0000 0.0000 -2.2408
v  0.0000 0.0000 -1.7487
v  0.0000 0.0000 -0.0000
v  1.7466 0.0000 -0.0000
v  1.8450 0.0000 -96.0000
v  -0.0000 0.0000 -96.0000
v  -0.0000 0.0000 -94.1593
v  22.2691 65.6445 -27.4209
v  18.2530 65.6445 -20.4647
v  25.2075 65.6445 -16.4518
v  29.2246 65.6445 -23.4097
v  54.9023 65.6445 -27.0135
v  50.9145 65.6445 -20.1065
v  59.2406 65.6445 -15.3016
v  63.2274 65.6445 -22.2069
v  66.7422 65.6445 -20.1777
v  68.7161 65.6445 -23.5157
v  65.1663 65.6445 -25.5652
v  89.2615 65.6445 -37.2107
v  85.8934 65.6445 -39.1553
v  83.8580 65.6445 -35.6299
v  87.2261 65.6445 -33.6853
v  76.2328 65.6445 -44.7329
v  71.8541 65.6445 -47.2609
v  68.4652 65.6445 -41.3910
v  72.8438 65.6445 -38.8630
v  62.1440 65.6445 -60.6936
v  58.7550 65.6445 -54.8237
v  63.2908 65.6445 -52.2050
v  66.6798 65.6445 -58.0748
v  52.4665 62.6767 -43.8979
v  50.3465 62.6767 -40.2308
v  54.8822 62.6767 -37.6120
v  57.0023 62.6767 -41.2792
v  41.1964 62.6767 -34.8863
v  45.7322 62.6767 -32.2676
v  48.0990 62.6767 -36.3551
v  43.5632 62.6767 -38.9738
v  45.8107 62.6767 -42.8495
v  42.2055 59.7540 -47.5950
v  33.6758 59.7646 -52.5288
v  30.2693 59.7646 -46.6422
v  38.7990 59.7540 -41.7085
v  45.9289 56.8781 -80.5490
v  40.8510 56.8781 -71.7537
v  48.7985 56.9297 -67.1579
v  53.8765 56.9297 -75.9532
v  23.4878 53.2143 -45.1486
v  31.7656 53.2143 -40.3694
v  34.1984 53.2143 -44.5833
v  25.9207 53.2143 -49.3624
v  17.8901 53.2143 -30.0513
v  23.8288 53.2143 -26.6226
v  27.2812 53.2143 -32.6023
v  21.3425 53.2143 -36.0310
v  14.3997 47.4613 -50.3489
v  10.0556 47.4613 -42.8249
v  19.1342 47.4613 -37.5834
v  23.4782 47.4613 -45.1074
v  59.7363 56.9075 -24.2122
v  62.9483 56.9075 -22.3681
v  66.1768 56.9075 -27.9602
v  62.9671 56.9075 -29.8081
v  50.2680 56.9075 -29.6489
v  53.6516 56.9075 -27.7059
v  56.8866 56.9075 -33.3091
v  53.5053 56.9075 -35.2560
v  66.6523 56.9075 -36.1911
v  69.8620 56.9075 -34.3431
v  57.1905 56.9075 -41.6389
v  60.5718 56.9075 -39.6920
v  60.4096 52.8969 -40.3614
v  56.2252 52.8969 -33.1139
v  63.1293 52.8969 -29.1388
v  67.3137 52.8969 -36.3863
v  76.2561 65.6445 -14.6848
v  78.1950 65.6445 -18.0431
v  74.8269 65.6445 -19.9877
v  72.8855 65.6445 -16.6308
v  79.6218 65.6445 -50.6027
v  79.7826 65.6445 -42.6834
v  83.1715 65.6445 -48.5533
v  89.2823 65.6445 -45.0252
v  76.3936 65.6445 -36.8136
v  68.7586 65.6445 -31.7872
v  72.3084 65.6445 -29.7378
v  78.4192 65.6445 -26.2097
v  81.7873 65.6445 -24.2651
v  74.8269 61.7380 -19.9877
v  78.4192 61.7380 -26.2097
v  72.3084 61.7380 -29.7378
v  68.7161 61.7380 -23.5157
v  37.1212 53.2143 -37.2773
v  39.5541 53.2143 -41.4912
v  32.6369 53.2143 -29.5102
v  29.1845 53.2143 -23.5305
v  15.2101 53.2143 -49.9277
v  17.6430 53.2143 -54.1416
v  32.5568 47.4613 -39.8659
v  28.2128 47.4613 -32.3418
v  14.8776 59.7879 -63.4020
v  11.4711 59.7879 -57.5154
v  20.0009 59.7773 -52.5817
v  23.4073 59.7773 -58.4682
v  51.0069 56.8781 -89.3443
v  58.9545 56.9297 -84.7485
v  30.6950 56.8781 -54.1632
v  35.7730 56.8781 -62.9585
v  27.8254 56.8265 -67.5543
v  22.7475 56.8265 -58.7590
v  32.9034 56.8265 -76.3496
v  30.0338 56.7749 -89.7407
v  24.9558 56.7749 -80.9454
v  37.9814 56.8265 -85.1449
v  56.7461 56.9812 -62.5621
v  61.8241 56.9812 -71.3573
v  66.9021 56.9812 -80.1526
v  71.9800 56.9812 -88.9479
v  64.0324 56.9297 -93.5437
v  43.0593 56.8265 -93.9401
v  46.5902 56.9812 -44.9715
v  51.6682 56.9812 -53.7668
v  43.7206 56.9297 -58.3626
v  38.6426 56.9297 -49.5673
v  19.8778 56.7749 -72.1501
v  14.7999 56.7749 -63.3548
v  47.9307 62.6767 -46.5167
v  50.2680 62.6767 -29.6489
v  52.6347 62.6767 -33.7363
v  72.5127 56.9075 -38.9574
v  69.3041 56.9075 -40.8073
v  63.2257 56.9075 -44.3119
v  59.8455 56.9075 -46.2608
v  67.3903 65.6445 -49.8381
v  70.7792 65.6445 -55.7080
v  57.6082 65.6445 -63.3123
v  54.2192 65.6445 -57.4424
v  75.2431 65.6445 -53.1308
v  92.6505 65.6445 -43.0806
v  55.3660 65.6445 -48.9538
v  59.9018 65.6445 -46.3351
v  64.0013 65.6445 -43.9683
v  50.8303 65.6445 -51.5726
v  62.7354 65.6445 -13.2839
v  68.8440 65.6445 -9.7571
v  72.2693 65.6445 -7.7795
v  64.8025 65.6445 -2.8834
v  68.2826 65.6445 -0.8742
v  33.2545 65.6445 -11.8081
v  37.2726 65.6445 -18.7678
v  58.7285 65.6445 -6.3902
v  55.0271 65.6445 -0.0000
v  63.1193 65.6445 -0.0000
v  53.7015 65.6445 -0.0000
v  51.2335 65.6445 -1.4321
v  55.2539 65.6445 -8.3963
v  41.2616 65.6445 -25.6768
v  33.2146 65.6445 -30.3205
v  67.7780 65.6445 -0.0000
v  21.2806 65.6445 -0.0000
v  26.4504 65.6445 -0.0000
v  29.1774 65.6445 -4.7464
v  17.1132 65.6445 -2.4321
v  21.1304 65.6445 -9.3901
v  50.3190 65.6445 -0.0000
v  7.1940 65.6445 -36.1145
v  3.1800 65.6445 -29.1621
v  13.6635 65.6445 -23.1129
v  17.6791 65.6445 -30.0679
v  14.1759 65.6445 -13.4029
v  10.1597 65.6445 -6.4467
v  5.5709 65.6445 -9.0961
v  9.5864 65.6445 -16.0511
v  37.2045 65.6445 -37.2313
v  45.2505 65.6445 -32.5859
v  46.9267 65.6445 -13.1994
v  42.9074 65.6445 -6.2377
v  39.3153 65.6445 0.0000
v  37.3728 65.6445 0.0000
v  39.4700 56.8032 -96.0000
v  33.6530 56.7749 -96.0000
v  44.2607 56.8265 -96.0000
v  54.8685 56.8781 -96.0000
v  59.7189 56.9017 -96.0000
v  0.0000 65.6445 -12.3075
v  0.0000 65.6445 -21.5849
v  0.0000 65.6445 -23.6428
v  95.1454 65.6445 -54.9547
v  85.4849 65.6445 -60.5323
v  81.1062 65.6445 -63.0603
v  72.5429 65.6445 -68.0043
v  68.0071 65.6445 -70.6231
v  89.0346 65.6445 -58.4828
v  76.6423 65.6445 -65.6375
v  63.4713 65.6445 -73.2418
v  64.1608 56.9812 -58.1869
v  69.2387 56.9812 -66.9821
v  74.3167 56.9812 -75.7774
v  20.1938 65.6445 -34.3242
v  9.7087 65.6445 -40.3708
v  41.2212 53.2143 -34.9145
v  43.6541 53.2143 -39.1283
v  91.0154 65.6445 -31.4208
v  93.0509 65.6445 -34.9463
v  96.0000 65.6445 -40.8161
# 210 vertices

vn 0.0000 1.0000 -0.0000
vn 0.0009 1.0000 0.0005
vn -0.0049 1.0000 -0.0028
vn -0.0000 1.0000 0.0000
# 4 vertex normals

vt 0.0238 1.0000 0.0000
vt 0.0000 1.0000 0.0000
vt 0.0000 0.9762 0.0000
vt 1.0000 0.9765 0.0000
vt 1.0000 1.0000 0.0000
vt 0.9767 1.0000 0.0000
vt 0.9818 0.0000 0.0000
vt 1.0000 0.0000 0.0000
vt 1.0000 0.0182 0.0000
vt 0.0000 0.0192 0.0000
vt 0.0000 0.0000 0.0000
vt 0.0192 0.0000 0.0000
vt 0.7144 0.2320 0.0000
vt 0.7868 0.1901 0.0000
vt 0.8286 0.2626 0.0000
vt 0.7561 0.3044 0.0000
vt 0.7186 0.5719 0.0000
vt 0.7906 0.5304 0.0000
vt 0.8406 0.6171 0.0000
vt 0.7687 0.6586 0.0000
vt 0.7898 0.6952 0.0000
vt 0.7550 0.7158 0.0000
vt 0.7337 0.6788 0.0000
vt 0.6124 0.9298 0.0000
vt 0.5921 0.8947 0.0000
vt 0.6289 0.8735 0.0000
vt 0.6491 0.9086 0.0000
vt 0.5340 0.7941 0.0000
vt 0.5077 0.7485 0.0000
vt 0.5688 0.7132 0.0000
vt 0.5952 0.7588 0.0000
vt 0.3678 0.6473 0.0000
vt 0.4289 0.6120 0.0000
vt 0.4562 0.6593 0.0000
vt 0.3951 0.6946 0.0000
vt 0.5427 0.5465 0.0000
vt 0.5809 0.5244 0.0000
vt 0.6082 0.5717 0.0000
vt 0.5700 0.5938 0.0000
vt 0.6366 0.4291 0.0000
vt 0.6639 0.4764 0.0000
vt 0.6213 0.5010 0.0000
vt 0.5940 0.4538 0.0000
vt 0.5537 0.4772 0.0000
vt 0.5042 0.4396 0.0000
vt 0.4528 0.3508 0.0000
vt 0.5141 0.3153 0.0000
vt 0.5655 0.4042 0.0000
vt 0.1609 0.4784 0.0000
vt 0.2526 0.4255 0.0000
vt 0.3004 0.5083 0.0000
vt 0.2088 0.5612 0.0000
vt 0.5297 0.2447 0.0000
vt 0.5795 0.3309 0.0000
vt 0.5356 0.3562 0.0000
vt 0.4858 0.2700 0.0000
vt 0.6870 0.1864 0.0000
vt 0.7227 0.2482 0.0000
vt 0.6604 0.2842 0.0000
vt 0.6247 0.2223 0.0000
vt 0.4755 0.1500 0.0000
vt 0.5539 0.1047 0.0000
vt 0.6085 0.1993 0.0000
vt 0.5301 0.2446 0.0000
vt 0.7478 0.6223 0.0000
vt 0.7670 0.6557 0.0000
vt 0.7087 0.6893 0.0000
vt 0.6895 0.6559 0.0000
vt 0.6912 0.5236 0.0000
vt 0.7114 0.5589 0.0000
vt 0.6530 0.5926 0.0000
vt 0.6328 0.5573 0.0000
vt 0.6230 0.6943 0.0000
vt 0.6423 0.7277 0.0000
vt 0.5663 0.5957 0.0000
vt 0.5865 0.6310 0.0000
vt 0.5796 0.6293 0.0000
vt 0.6551 0.5857 0.0000
vt 0.6965 0.6576 0.0000
vt 0.6210 0.7012 0.0000
vt 0.8470 0.7943 0.0000
vt 0.8121 0.8145 0.0000
vt 0.7918 0.7794 0.0000
vt 0.8268 0.7592 0.0000
vt 0.4729 0.8294 0.0000
vt 0.5554 0.8311 0.0000
vt 0.4942 0.8664 0.0000
vt 0.5310 0.9300 0.0000
vt 0.6165 0.7958 0.0000
vt 0.6689 0.7162 0.0000
vt 0.6902 0.7532 0.0000
vt 0.7270 0.8169 0.0000
vt 0.7472 0.8520 0.0000
vt 0.6117 0.3867 0.0000
vt 0.5678 0.4120 0.0000
vt 0.6926 0.3400 0.0000
vt 0.7549 0.3040 0.0000
vt 0.4799 0.1584 0.0000
vt 0.4360 0.1838 0.0000
vt 0.5847 0.3391 0.0000
vt 0.6631 0.2939 0.0000
vt 0.3396 0.1550 0.0000
vt 0.4009 0.1195 0.0000
vt 0.4523 0.2083 0.0000
vt 0.3910 0.2438 0.0000
vt 0.0693 0.5313 0.0000
vt 0.1172 0.6141 0.0000
vt 0.4358 0.3197 0.0000
vt 0.3442 0.3726 0.0000
vt 0.2963 0.2898 0.0000
vt 0.3879 0.2370 0.0000
vt 0.2047 0.3427 0.0000
vt 0.0652 0.3129 0.0000
vt 0.1568 0.2600 0.0000
vt 0.1131 0.3956 0.0000
vt 0.3483 0.5911 0.0000
vt 0.2567 0.6440 0.0000
vt 0.1651 0.6969 0.0000
vt 0.0735 0.7498 0.0000
vt 0.0256 0.6670 0.0000
vt 0.0215 0.4485 0.0000
vt 0.5315 0.4853 0.0000
vt 0.4399 0.5382 0.0000
vt 0.3921 0.4554 0.0000
vt 0.4837 0.4025 0.0000
vt 0.2484 0.2071 0.0000
vt 0.3401 0.1542 0.0000
vt 0.5155 0.4993 0.0000
vt 0.6486 0.5483 0.0000
vt 0.5942 0.7553 0.0000
vt 0.5749 0.7219 0.0000
vt 0.5384 0.6586 0.0000
vt 0.5181 0.6234 0.0000
vt 0.4809 0.7020 0.0000
vt 0.4197 0.7373 0.0000
vt 0.3405 0.6001 0.0000
vt 0.4016 0.5648 0.0000
vt 0.4466 0.7838 0.0000
vt 0.5512 0.9651 0.0000
vt 0.4901 0.5767 0.0000
vt 0.5173 0.6240 0.0000
vt 0.5420 0.6667 0.0000
vt 0.4628 0.5295 0.0000
vt 0.8616 0.6535 0.0000
vt 0.8984 0.7171 0.0000
vt 0.9190 0.7528 0.0000
vt 0.9700 0.6750 0.0000
vt 0.9909 0.7113 0.0000
vt 0.8770 0.3464 0.0000
vt 0.8045 0.3883 0.0000
vt 0.9334 0.6118 0.0000
vt 1.0000 0.5732 0.0000
vt 1.0000 0.6575 0.0000
vt 1.0000 0.5594 0.0000
vt 0.9851 0.5337 0.0000
vt 0.9125 0.5756 0.0000
vt 0.7325 0.4298 0.0000
vt 0.6842 0.3460 0.0000
vt 1.0000 0.7060 0.0000
vt 1.0000 0.2217 0.0000
vt 1.0000 0.2755 0.0000
vt 0.9506 0.3039 0.0000
vt 0.9747 0.1783 0.0000
vt 0.9022 0.2201 0.0000
vt 1.0000 0.5242 0.0000
vt 0.6238 0.0749 0.0000
vt 0.6962 0.0331 0.0000
vt 0.7592 0.1423 0.0000
vt 0.6868 0.1842 0.0000
vt 0.8604 0.1477 0.0000
vt 0.9328 0.1058 0.0000
vt 0.9052 0.0580 0.0000
vt 0.8328 0.0999 0.0000
vt 0.6122 0.3875 0.0000
vt 0.6606 0.4714 0.0000
vt 0.8625 0.4888 0.0000
vt 0.9350 0.4470 0.0000
vt 1.0000 0.4095 0.0000
vt 1.0000 0.3893 0.0000
vt 0.0000 0.4111 0.0000
vt 0.0000 0.3506 0.0000
vt 0.0000 0.4610 0.0000
vt 0.0000 0.5715 0.0000
vt 0.0000 0.6221 0.0000
vt 0.8718 0.0000 0.0000
vt 0.7752 -0.0000 0.0000
vt 0.7537 -0.0000 0.0000
vt 0.4276 0.9911 0.0000
vt 0.3695 0.8905 0.0000
vt 0.3431 0.8449 0.0000
vt 0.2916 0.7557 0.0000
vt 0.2643 0.7084 0.0000
vt 0.3908 0.9274 0.0000
vt 0.3163 0.7984 0.0000
vt 0.2371 0.6612 0.0000
vt 0.3939 0.6683 0.0000
vt 0.3023 0.7212 0.0000
vt 0.2107 0.7741 0.0000
vt 0.6425 0.2104 0.0000
vt 0.5795 0.1011 0.0000
vt 0.6363 0.4294 0.0000
vt 0.5924 0.4547 0.0000
vt 0.6727 0.9481 0.0000
vt 0.6360 0.9693 0.0000
vt 0.5748 1.0000 0.0000
# 205 texture coords

g default
usemtl wire_225087143
s 1
f 1/1/1 2/2/1 3/3/1 
f 4/4/1 5/5/1 6/6/1 
f 7/7/1 8/8/1 9/9/1 
f 10/10/1 11/11/1 12/12/1 
s 4
f 13/13/1 14/14/1 15/15/1 16/16/1 
f 17/17/1 18/18/1 19/19/1 20/20/1 
s off
f 21/21/1 22/22/1 23/23/1 20/20/1 
f 24/24/1 25/25/1 26/26/1 27/27/1 
f 28/28/1 29/29/1 30/30/1 31/31/1 
f 32/32/1 33/33/1 34/34/1 35/35/1 
f 36/36/1 37/37/1 38/38/1 39/39/1 
f 40/40/1 41/41/1 42/42/1 43/43/1 
f 43/43/1 42/42/1 37/37/1 44/44/1 
f 45/45/2 46/46/2 47/47/2 48/48/2 
f 49/49/3 50/50/3 51/51/3 52/52/3 
f 53/53/1 54/54/1 55/55/1 56/56/1 
f 57/57/1 58/58/1 59/59/1 60/60/1 
f 61/61/1 62/62/1 63/63/1 64/64/1 
f 65/65/1 66/66/1 67/67/1 68/68/1 
f 69/69/4 70/70/4 71/71/4 72/72/4 
f 70/70/1 65/65/1 68/68/1 71/71/1 
f 73/73/1 68/68/1 67/67/1 74/74/1 
f 75/75/1 72/72/1 71/71/1 76/76/1 
f 77/77/1 78/78/1 79/79/1 80/80/1 
f 81/81/1 82/82/1 83/83/1 84/84/1 
f 85/85/1 28/28/1 86/86/1 87/87/1 
f 84/84/1 83/83/1 22/22/1 21/21/1 
f 87/87/1 86/86/1 25/25/1 88/88/1 
f 89/89/1 31/31/1 90/90/1 91/91/1 
f 27/27/1 26/26/1 92/92/1 93/93/1 
f 26/26/1 89/89/1 91/91/1 92/92/1 
f 22/22/1 91/91/1 90/90/1 23/23/1 
f 82/82/1 93/93/1 92/92/1 83/83/1 
f 94/83/1 95/92/1 96/91/1 97/22/1 
f 54/54/1 98/94/1 99/95/1 55/55/1 
f 59/59/1 100/96/1 98/94/1 54/54/1 
f 58/58/1 101/97/1 100/96/1 59/59/1 
f 102/98/1 53/53/1 56/56/1 103/99/1 
f 104/100/1 64/64/1 63/63/1 105/101/1 
f 106/102/2 107/103/2 108/104/2 109/105/2 
f 46/46/2 109/105/2 108/104/2 47/47/2 
f 110/106/3 49/49/3 52/52/3 111/107/3 
f 112/108/3 113/109/3 114/110/3 115/111/3 
f 113/109/3 50/50/3 116/112/3 114/110/3 
f 117/113/3 118/114/3 116/112/3 119/115/3 
f 119/115/3 116/112/3 50/50/3 49/49/3 
f 120/116/3 121/117/3 52/52/3 51/51/3 
f 122/118/3 123/119/3 124/120/3 111/107/3 
f 125/121/3 119/115/3 49/49/3 110/106/3 
f 121/117/3 122/118/3 111/107/3 52/52/3 
f 126/122/3 127/123/3 128/124/3 129/125/3 
f 129/125/3 128/124/3 113/109/3 112/108/3 
f 130/126/3 131/127/3 115/111/3 114/110/3 
f 127/123/3 120/116/3 51/51/3 128/124/3 
f 128/124/3 51/51/3 50/50/3 113/109/3 
f 118/114/3 130/126/3 114/110/3 116/112/3 
f 132/128/1 44/44/1 37/37/1 36/36/1 
f 133/69/1 134/129/1 42/42/1 41/41/1 
f 134/129/1 38/38/1 37/37/1 42/42/1 
f 73/73/1 74/74/1 135/130/1 136/131/1 
f 75/75/1 76/76/1 137/132/1 138/133/1 
f 76/76/1 73/73/1 136/131/1 137/132/1 
f 35/35/1 34/34/1 139/134/1 140/135/1 
f 141/136/1 142/137/1 33/33/1 32/32/1 
f 140/135/1 139/134/1 29/29/1 143/138/1 
f 144/139/1 88/88/1 25/25/1 24/24/1 
f 85/85/1 143/138/1 29/29/1 28/28/1 
f 145/140/1 146/141/1 34/34/1 33/33/1 
f 31/31/1 89/89/1 86/86/1 28/28/1 
f 89/89/1 26/26/1 25/25/1 86/86/1 
f 146/141/1 147/142/1 139/134/1 34/34/1 
f 148/143/1 145/140/1 33/33/1 142/137/1 
f 147/142/1 30/30/1 29/29/1 139/134/1 
s 4
f 21/21/1 149/144/1 150/145/1 84/84/1 
f 20/20/1 19/19/1 149/144/1 21/21/1 
f 151/146/1 150/145/1 152/147/1 153/148/1 
f 15/15/1 154/149/1 155/150/1 16/16/1 
f 156/151/1 157/152/1 158/153/1 152/147/1 
f 159/154/1 157/152/1 156/151/1 160/155/1 
f 161/156/1 160/155/1 156/151/1 
f 16/16/1 155/150/1 162/157/1 163/158/1 
f 149/144/1 156/151/1 152/147/1 150/145/1 
f 161/156/1 156/151/1 149/144/1 19/19/1 
f 81/81/1 84/84/1 150/145/1 151/146/1 
f 164/159/1 153/148/1 152/147/1 158/153/1 
f 165/160/1 166/161/1 167/162/1 168/163/1 
f 169/164/1 168/163/1 167/162/1 
f 169/164/1 167/162/1 154/149/1 15/15/1 
f 160/155/1 170/165/1 159/154/1 
f 171/166/1 172/167/1 173/168/1 174/169/1 
f 168/163/1 169/164/1 175/170/1 176/171/1 
f 169/164/1 15/15/1 14/14/1 175/170/1 
f 13/13/1 174/169/1 173/168/1 14/14/1 
f 177/172/1 176/171/1 175/170/1 178/173/1 
f 178/173/1 175/170/1 14/14/1 173/168/1 
f 179/174/1 163/158/1 162/157/1 180/175/1 
f 160/155/1 161/156/1 181/176/1 182/177/1 
f 161/156/1 19/19/1 18/18/1 181/176/1 
f 170/165/1 160/155/1 182/177/1 183/178/1 
f 17/17/1 180/175/1 162/157/1 18/18/1 
f 154/149/1 182/177/1 181/176/1 155/150/1 
f 155/150/1 181/176/1 18/18/1 162/157/1 
f 184/179/1 167/162/1 166/161/1 
f 184/179/1 183/178/1 182/177/1 167/162/1 
f 167/162/1 182/177/1 154/149/1 
s off
f 119/115/3 125/121/3 185/180/3 117/113/3 
f 186/181/3 117/113/3 185/180/3 
f 185/180/3 125/121/3 187/182/3 
f 187/182/3 125/121/3 110/106/3 188/183/3 
f 111/107/3 124/120/3 189/184/3 110/106/3 
f 188/183/3 110/106/3 189/184/3 
s 4
f 190/185/1 177/172/1 178/173/1 191/186/1 
f 173/168/1 172/167/1 192/187/1 178/173/1 
f 191/186/1 178/173/1 192/187/1 
s off
f 88/88/1 144/139/1 193/188/1 
f 143/138/1 85/85/1 194/189/1 195/190/1 
f 32/32/1 35/35/1 196/191/1 197/192/1 
f 85/85/1 87/87/1 198/193/1 194/189/1 
f 87/87/1 88/88/1 193/188/1 198/193/1 
f 35/35/1 140/135/1 199/194/1 196/191/1 
f 141/136/1 32/32/1 197/192/1 200/195/1 
f 140/135/1 143/138/1 195/190/1 199/194/1 
f 121/117/1 120/116/1 201/196/1 202/197/1 
f 122/118/1 121/117/1 202/197/1 203/198/1 
f 171/166/1 174/169/1 204/199/1 205/200/1 
f 99/95/1 98/94/1 206/201/1 207/202/1 
f 24/24/1 27/27/1 208/203/1 209/204/1 
f 144/139/1 24/24/1 209/204/1 210/205/1 
# 114 polygons - 14 triangles

