# 3ds Max Wavefront OBJ Exporter v0.97b - (c)2007 guruware
# File Created: 14.07.2014 09:58:20

mtllib YiZhan_07_m.mtl

#
# object Object001
#

v  28.8563 152.0234 25.0088
v  35.5894 152.0234 56.7506
v  47.1319 152.0234 51.9412
v  52.9031 150.2378 58.6744
v  65.4075 150.2359 74.0644
v  54.8269 150.2378 54.8269
v  88.4925 150.2378 24.0469
v  88.4925 150.2378 62.5219
v  95.2256 150.2378 56.7506
v  62.5219 150.0092 36.5513
v  49.0556 152.0234 13.4663
v  40.3988 150.6317 13.4663
v  55.7887 151.9685 47.1319
v  59.6362 152.0234 31.7419
v  35.5894 149.9908 70.2169
v  42.3225 150.0092 79.8356
v  55.7887 150.0092 49.0556
v  46.1700 151.8586 55.7887
v  52.9031 150.8881 50.9794
v  49.0556 150.2655 56.7506
v  31.7419 152.0234 18.2756
v  33.6656 149.9542 64.4456
v  38.4750 150.0092 60.5981
v  47.1319 151.7671 54.8269
v  49.0556 151.4008 53.8650
v  47.1319 150.0092 58.6744
v  95.2256 150.2378 41.3606
v  56.7506 152.0234 18.2756
v  47.1319 150.4486 57.7125
v  51.9412 151.1994 50.0175
# 30 vertices

vn -0.0194 0.9992 -0.0345
vn 0.0016 1.0000 0.0039
vn 0.0891 0.9943 0.0583
vn -0.0188 0.9998 -0.0083
vn -0.0025 1.0000 -0.0026
vn 0.0624 0.9978 0.0241
vn -0.0066 1.0000 -0.0000
vn -0.0041 1.0000 -0.0021
vn 0.0000 1.0000 -0.0000
vn -0.0084 1.0000 -0.0004
vn -0.0592 0.9975 -0.0389
vn -0.0766 0.9943 -0.0740
vn -0.0007 1.0000 0.0034
vn -0.0036 1.0000 0.0009
vn -0.0112 0.9999 0.0003
vn -0.0095 0.9999 0.0061
vn 0.0738 0.9973 -0.0047
vn 0.2305 0.9529 0.1970
vn 0.2217 0.9699 0.1009
vn 0.1870 0.9416 0.2801
vn 0.2056 0.9746 0.0881
vn 0.1261 0.9920 0.0065
vn -0.0130 0.9999 -0.0020
vn -0.0026 1.0000 0.0011
vn 0.2739 0.9373 0.2157
vn 0.2954 0.9274 0.2295
vn 0.0327 0.9972 0.0671
vn -0.0055 1.0000 -0.0030
vn 0.0287 0.9980 0.0558
vn -0.0027 1.0000 0.0019
vn 0.3030 0.8668 0.3960
vn 0.3257 0.8257 0.4606
# 32 vertex normals

vt 0.2629 0.3008 11.0089
vt 0.5352 0.3822 11.0089
vt 0.5450 0.4933 11.0089
vt 0.6155 0.5540 10.8854
vt 0.7869 0.6452 10.8854
vt 0.5751 0.5741 10.8854
vt 0.2516 0.9269 10.8854
vt 0.7262 0.7360 10.8854
vt 0.5945 0.9983 10.8854
vt 0.3833 0.6545 10.8696
vt 0.1414 0.5127 11.0089
vt 0.1416 0.4218 10.9127
vt 0.4945 0.5234 11.0089
vt 0.3329 0.6241 11.0089
vt 0.7370 0.3724 10.8684
vt 0.8377 0.4433 10.8696
vt 0.5045 0.6043 10.8854
vt 0.5854 0.4832 10.9975
vt 0.5348 0.5538 10.9304
vt 0.5954 0.5135 10.8874
vt 0.1922 0.3310 11.0089
vt 0.6765 0.3521 10.8658
vt 0.6258 0.4530 10.8696
vt 0.5753 0.4933 10.9912
vt 0.5652 0.5135 10.9658
vt 0.6055 0.5136 10.8709
vt 0.4331 0.9979 10.8854
vt 0.2220 0.5936 11.0089
vt 0.6056 0.4934 10.9000
vt 0.5248 0.5437 10.9519
# 30 texture coords

g Object001
usemtl Material__48
s 1
f 1/1/1 2/2/2 3/3/3 
f 4/4/4 5/5/5 6/6/6 
f 7/7/7 8/8/8 9/9/9 
f 7/7/7 10/10/10 8/8/8 
f 11/11/11 12/12/12 1/1/1 
f 13/13/13 14/14/14 1/1/1 
f 15/15/15 16/16/16 4/4/4 
f 17/17/17 5/5/5 8/8/8 
f 8/8/8 10/10/10 17/17/17 
f 2/2/2 18/18/18 3/3/3 
f 4/4/4 16/16/16 5/5/5 
f 19/19/19 20/20/20 6/6/6 
f 21/21/21 1/1/22 12/12/12 
f 22/22/23 15/15/15 23/23/24 
f 24/24/25 20/20/20 25/25/26 
f 23/23/24 15/15/15 26/26/27 
f 7/7/7 9/9/9 27/27/28 
f 6/6/6 5/5/5 17/17/17 
f 3/3/3 13/13/29 1/1/1 
f 25/25/26 20/20/20 19/19/19 
f 1/1/1 14/14/14 28/28/30 
f 29/29/31 20/20/20 24/24/25 
f 15/15/15 4/4/4 26/26/27 
f 19/19/19 6/6/6 17/17/17 
f 26/26/27 4/4/4 6/6/6 
f 3/3/3 30/30/32 13/13/29 
f 3/3/3 25/25/26 30/30/32 
f 24/24/25 25/25/26 3/3/3 
f 1/1/1 28/28/30 11/11/11 
f 25/25/26 19/19/19 30/30/32 
f 18/18/18 24/24/25 3/3/3 
f 18/18/18 29/29/31 24/24/25 
f 20/20/20 26/26/27 6/6/6 
f 29/29/31 26/26/27 20/20/20 
# 0 polygons - 34 triangles

