# 3ds Max Wavefront OBJ Exporter v0.97b - (c)2007 guruware
# File Created: 03.07.2014 20:39:45

mtllib YiZhan_06_m.mtl

#
# object YiZhan_06_m
#

v  62.1519 22.7644 78.4298
v  65.8514 22.7644 74.7303
v  -20.6054 22.7973 36.7236
v  63.7391 23.5896 80.3897
v  66.3092 23.0977 75.4817
v  59.0575 22.7644 104.6021
v  65.3294 24.7024 83.2332
v  67.3313 25.4715 83.6091
v  69.5614 24.5742 77.3615
v  64.5498 24.0702 81.3539
v  17.6675 22.8318 -15.1948
v  71.1350 25.0913 77.7328
v  72.2110 25.4116 80.1153
v  105.6112 22.7614 62.5544
v  69.2233 25.4996 89.8627
v  78.6824 25.3835 83.0900
# 16 vertices

vn -0.1085 0.9928 -0.0507
vn -0.0601 0.9922 -0.1089
vn 0.0001 1.0000 0.0006
vn -0.2896 0.9419 -0.1702
vn -0.2158 0.9374 -0.2732
vn -0.1700 0.9822 -0.0805
vn -0.1657 0.9241 -0.3443
vn -0.0177 0.9952 -0.0962
vn -0.3816 0.9168 -0.1174
vn -0.3617 0.8821 -0.3019
vn 0.0002 1.0000 0.0006
vn 0.0001 1.0000 0.0007
vn -0.2522 0.9674 -0.0233
vn -0.0461 0.9975 -0.0537
vn 0.0003 1.0000 0.0006
vn 0.0074 0.9999 -0.0067
# 16 vertex normals

vt 0.8217 0.6512 0.0000
vt 0.7829 0.6899 0.0000
vt 0.5659 0.5659 0.0000
vt 0.8295 0.6744 0.0000
vt 0.7984 0.6899 0.0000
vt 0.6744 0.4884 0.0000
vt 0.8527 0.6977 0.0000
vt 0.8760 0.7054 0.0000
vt 0.8217 0.7209 0.0000
vt 0.8450 0.6822 0.0000
vt 0.5271 0.6047 0.0000
vt 0.8295 0.7364 0.0000
vt 0.8525 0.7375 0.0000
vt 0.7442 0.7442 0.0000
# 14 texture coords

g YiZhan_06_m
usemtl Material__25
s 1
f 1/1/1 2/2/2 3/3/3 
f 1/1/1 4/4/4 5/5/5 
f 6/6/6 1/1/1 3/3/3 
f 7/7/7 8/8/8 9/9/9 
f 5/5/5 10/10/10 9/9/9 
f 3/3/3 2/2/11 11/11/12 
f 10/10/10 7/7/7 9/9/9 
f 1/1/1 5/5/5 2/2/2 
f 4/4/4 10/10/10 5/5/5 
f 9/9/9 8/8/8 12/12/13 
f 12/12/13 8/8/8 13/13/14 
f 2/2/11 14/14/15 11/11/12 
s off
f 13/13/16 8/8/16 15/8/16 16/13/16 
# 1 polygons - 12 triangles

